<svg width="28" height="27" viewBox="0 0 28 27" fill="none" xmlns="http://www.w3.org/2000/svg">
<path opacity="0.4" d="M18.7166 2.28027H9.47832C5.4655 2.28027 3.07324 4.67253 3.07324 8.68535V17.9126C3.07324 21.9365 5.4655 24.3287 9.47832 24.3287H18.7056C22.7184 24.3287 25.1107 21.9365 25.1107 17.9237V8.68535C25.1217 4.67253 22.7294 2.28027 18.7166 2.28027Z" fill="#FF875A"/>
<path d="M21.2964 12.7201L16.567 7.99075C16.2473 7.67105 15.7182 7.67105 15.3985 7.99075C15.0788 8.31046 15.0788 8.83962 15.3985 9.15932L18.7168 12.4776H7.48307C7.03107 12.4776 6.65625 12.8524 6.65625 13.3044C6.65625 13.7564 7.03107 14.1312 7.48307 14.1312H18.7168L15.3985 17.4495C15.0788 17.7692 15.0788 18.2984 15.3985 18.6181C15.5638 18.7835 15.7733 18.8606 15.9827 18.8606C16.1922 18.8606 16.4017 18.7835 16.567 18.6181L21.2964 13.8887C21.4508 13.7344 21.539 13.5249 21.539 13.3044C21.539 13.0839 21.4508 12.8745 21.2964 12.7201Z" fill="#FF875A"/>
</svg>
