<svg width="23" height="23" viewBox="0 0 23 23" fill="none" xmlns="http://www.w3.org/2000/svg">
<g clip-path="url(#clip0_417_2426)">
<path d="M1.50573 13.9912C1.68285 13.9912 1.85271 14.0616 1.97796 14.1868C2.1032 14.3121 2.17356 14.4819 2.17356 14.659V17.9982C2.17356 18.3525 2.31428 18.6922 2.56477 18.9427C2.81526 19.1932 3.15499 19.3339 3.50923 19.3339H19.5373C19.8915 19.3339 20.2312 19.1932 20.4817 18.9427C20.7322 18.6922 20.8729 18.3525 20.8729 17.9982V14.659C20.8729 14.4819 20.9433 14.3121 21.0685 14.1868C21.1938 14.0616 21.3637 13.9912 21.5408 13.9912C21.7179 13.9912 21.8878 14.0616 22.013 14.1868C22.1382 14.3121 22.2086 14.4819 22.2086 14.659V17.9982C22.2086 18.7067 21.9272 19.3862 21.4262 19.8871C20.9252 20.3881 20.2458 20.6696 19.5373 20.6696H3.50923C2.80075 20.6696 2.12128 20.3881 1.62031 19.8871C1.11933 19.3862 0.837891 18.7067 0.837891 17.9982V14.659C0.837891 14.4819 0.908252 14.3121 1.03349 14.1868C1.15874 14.0616 1.3286 13.9912 1.50573 13.9912Z" fill="white"/>
<path d="M11.0505 16.6014C11.1126 16.6636 11.1862 16.7129 11.2674 16.7466C11.3485 16.7802 11.4355 16.7976 11.5233 16.7976C11.6112 16.7976 11.6982 16.7802 11.7793 16.7466C11.8604 16.7129 11.9341 16.6636 11.9962 16.6014L16.0032 12.5944C16.1286 12.469 16.199 12.2989 16.199 12.1215C16.199 11.9442 16.1286 11.7741 16.0032 11.6487C15.8778 11.5233 15.7077 11.4528 15.5304 11.4528C15.353 11.4528 15.1829 11.5233 15.0575 11.6487L12.1912 14.5164V2.77184C12.1912 2.59472 12.1208 2.42485 11.9956 2.29961C11.8703 2.17436 11.7005 2.104 11.5233 2.104C11.3462 2.104 11.1764 2.17436 11.0511 2.29961C10.9259 2.42485 10.8555 2.59472 10.8555 2.77184V14.5164L7.98916 11.6487C7.86376 11.5233 7.69368 11.4528 7.51634 11.4528C7.33899 11.4528 7.16891 11.5233 7.04351 11.6487C6.91811 11.7741 6.84766 11.9442 6.84766 12.1215C6.84766 12.2989 6.91811 12.469 7.04351 12.5944L11.0505 16.6014Z" fill="white"/>
</g>
<defs>
<clipPath id="clip0_417_2426">
<rect width="21.3707" height="21.3707" fill="white" transform="translate(0.837891 0.768066)"/>
</clipPath>
</defs>
</svg>
