<svg width="24" height="24" viewBox="0 0 24 24" fill="none" xmlns="http://www.w3.org/2000/svg">
<path d="M12 24C18.6274 24 24 18.6274 24 12C24 5.37258 18.6274 0 12 0C5.37258 0 0 5.37258 0 12C0 18.6274 5.37258 24 12 24Z" fill="#1769FF"/>
<path d="M8.47713 6.5625C8.99457 6.5625 9.46689 6.60858 9.89409 6.69978C10.3213 6.79098 10.6861 6.94074 10.9904 7.14906C11.2947 7.35738 11.5309 7.63386 11.6989 7.97946C11.8669 8.32506 11.9504 8.7513 11.9504 9.25914C11.9504 9.8073 11.8256 10.2643 11.577 10.63C11.3283 10.9958 10.9597 11.2953 10.473 11.5286C11.1431 11.7215 11.6432 12.0595 11.9735 12.5414C12.3037 13.0233 12.4688 13.6051 12.4688 14.2857C12.4688 14.8339 12.3623 15.3091 12.1491 15.7103C11.936 16.1116 11.649 16.439 11.288 16.6924C10.9271 16.9468 10.5162 17.134 10.0544 17.2559C9.58977 17.3779 9.11073 17.4393 8.63073 17.4383H3.35938V6.5625H8.47713ZM8.17281 10.9641C8.59905 10.9641 8.94945 10.8623 9.22401 10.6598C9.49857 10.4563 9.63585 10.127 9.63489 9.67002C9.63489 9.41658 9.58881 9.20826 9.49761 9.04602C9.40641 8.88378 9.28449 8.7561 9.13185 8.6649C8.97921 8.5737 8.80449 8.51034 8.60673 8.47482C8.40321 8.4393 8.19681 8.42106 7.98945 8.42202H5.75169V10.966L8.17281 10.9641ZM8.31009 15.5788C8.53569 15.5798 8.76033 15.5567 8.98017 15.5107C9.19329 15.4646 9.38145 15.3887 9.54369 15.2822C9.70593 15.1756 9.83553 15.0307 9.93249 14.8483C10.0285 14.6659 10.0775 14.4316 10.0775 14.1475C10.0775 13.5897 9.92001 13.1903 9.60513 12.9523C9.29025 12.7132 8.87361 12.5942 8.35617 12.5942H5.75169V15.5798L8.31009 15.5788ZM15.4775 15.3503C15.8019 15.6652 16.2695 15.8227 16.879 15.8227C17.3158 15.8227 17.6912 15.7132 18.0061 15.4953C18.321 15.2774 18.5139 15.046 18.585 14.8022H20.4886C20.1843 15.7468 19.7168 16.4217 19.087 16.8278C18.4573 17.2339 17.696 17.4374 16.8022 17.4374C16.1831 17.4374 15.6243 17.3385 15.1271 17.1407C14.6298 16.943 14.2083 16.6607 13.8627 16.295C13.5171 15.9292 13.2503 15.4934 13.0631 14.9855C12.8759 14.4777 12.7818 13.919 12.7818 13.3103C12.7818 12.7219 12.8778 12.1737 13.0707 11.6659C13.2637 11.158 13.5383 10.7193 13.8935 10.3487C14.2487 9.97818 14.673 9.68634 15.1655 9.47322C15.6579 9.2601 16.2042 9.15354 16.8032 9.15354C17.4733 9.15354 18.057 9.28314 18.5552 9.54234C19.0525 9.80154 19.4614 10.1491 19.7811 10.5859C20.1008 11.0227 20.3322 11.5199 20.4742 12.0787C20.6163 12.6374 20.6672 13.2211 20.6269 13.8307H14.9456C14.9754 14.5286 15.153 15.0364 15.4775 15.3503ZM17.9226 11.2079C17.6634 10.9238 17.2698 10.7817 16.7418 10.7817C16.3962 10.7817 16.1091 10.8403 15.8816 10.9564C15.6531 11.0735 15.4707 11.2175 15.3335 11.3903C15.1962 11.5631 15.1002 11.7455 15.0445 11.9385C14.9888 12.1315 14.9552 12.3043 14.9456 12.4559H18.464C18.3613 11.9087 18.1808 11.4921 17.9226 11.2079ZM14.5751 7.1145H18.9709V8.3337H14.5751V7.1145Z" fill="white"/>
</svg>
