<svg width="24" height="24" viewBox="0 0 24 24" fill="none" xmlns="http://www.w3.org/2000/svg">
<path d="M17.5401 8.30965C18.8987 8.30965 20.0001 7.20827 20.0001 5.84965C20.0001 4.49103 18.8987 3.38965 17.5401 3.38965C16.1814 3.38965 15.0801 4.49103 15.0801 5.84965C15.0801 7.20827 16.1814 8.30965 17.5401 8.30965Z" stroke="#292D32" stroke-width="1.5" stroke-miterlimit="10" stroke-linecap="round" stroke-linejoin="round"/>
<path d="M6.46001 8.30965C7.81863 8.30965 8.92 7.20827 8.92 5.84965C8.92 4.49103 7.81863 3.38965 6.46001 3.38965C5.10139 3.38965 4 4.49103 4 5.84965C4 7.20827 5.10139 8.30965 6.46001 8.30965Z" stroke="#292D32" stroke-width="1.5" stroke-miterlimit="10" stroke-linecap="round" stroke-linejoin="round"/>
<path d="M17.5401 20.6095C18.8987 20.6095 20.0001 19.5081 20.0001 18.1495C20.0001 16.7908 18.8987 15.6895 17.5401 15.6895C16.1814 15.6895 15.0801 16.7908 15.0801 18.1495C15.0801 19.5081 16.1814 20.6095 17.5401 20.6095Z" stroke="#292D32" stroke-width="1.5" stroke-miterlimit="10" stroke-linecap="round" stroke-linejoin="round"/>
<path d="M6.46001 20.6095C7.81863 20.6095 8.92 19.5081 8.92 18.1495C8.92 16.7908 7.81863 15.6895 6.46001 15.6895C5.10139 15.6895 4 16.7908 4 18.1495C4 19.5081 5.10139 20.6095 6.46001 20.6095Z" stroke="#292D32" stroke-width="1.5" stroke-miterlimit="10" stroke-linecap="round" stroke-linejoin="round"/>
</svg>
