<svg width="140" height="24" viewBox="0 0 140 24" fill="none" xmlns="http://www.w3.org/2000/svg">
<path d="M27.8636 3.19126L28.0858 5.63375L26.8796 5.47515C26.0544 5.34827 25.9274 5.37999 26.467 5.53859C26.9114 5.66547 27.2605 6.0144 27.2605 6.26817C27.2605 6.55365 25.8639 8.23484 24.1816 10.0746C21.2297 13.215 21.071 13.3419 20.6266 12.7392C20.3727 12.3902 20.0553 12.1999 19.9283 12.3585C19.8013 12.4854 19.8648 12.5806 20.0553 12.5806C20.2774 12.5806 20.4361 12.8026 20.4361 13.0564C20.4361 13.3736 20.1187 13.5322 19.3569 13.5322C18.4682 13.5322 18.246 13.4053 18.119 12.8026L17.9921 12.1048L17.9286 12.8026C17.8968 13.437 17.7064 13.5322 16.6589 13.5322C15.7384 13.5322 15.3575 13.3736 15.2623 12.9612C15.1354 12.5489 15.1036 12.6123 15.0719 13.1198C15.0401 13.5322 14.8497 13.8494 14.564 13.8494C14.3101 13.8494 14.0879 13.9763 14.0879 14.1666C14.0879 14.3569 14.3736 14.3569 14.8497 14.1666C15.7702 13.8177 27.7366 13.7542 27.7366 14.1032C27.7366 14.3252 25.7687 14.9596 22.2771 15.8478C21.4836 16.0698 20.6901 16.3553 20.5314 16.5139C20.4044 16.6725 20.5631 16.7043 20.9123 16.6091C21.2614 16.5139 22.2771 16.2602 23.1342 16.0381C24.0229 15.8478 24.8482 15.5306 25.0386 15.4037C25.3878 15.0548 26.467 15.0231 26.467 15.372C26.467 15.6575 22.3406 17.6559 21.7693 17.6559C21.5471 17.6559 21.3884 17.8462 21.3566 18.0365C21.3566 18.2586 20.8488 18.8613 20.214 19.4005L19.103 20.3204L18.4999 19.5908C17.7381 18.6392 17.7381 17.9731 18.4999 17.9731C18.8173 17.9731 19.1665 17.751 19.2935 17.4973C19.3887 17.2118 19.2935 17.0215 19.0078 17.0215C18.3412 17.0215 18.4047 16.8311 19.3887 15.4989C20.214 14.3569 20.214 14.3569 18.9443 15.6575C18.2143 16.4188 17.4207 17.0215 17.1351 17.0215C16.8811 17.0215 16.5955 17.1483 16.5002 17.3069C16.2146 17.751 16.6272 18.6075 17.1351 18.6075C17.3572 18.6075 17.7699 19.0199 18.0556 19.5591C18.5952 20.5742 19.4839 21.272 20.7536 21.621C21.3884 21.7796 21.4519 21.7478 21.071 21.4623C20.6901 21.2086 20.9123 21.1451 22.0232 21.2086C23.2294 21.3037 23.4516 21.3989 23.5468 22.0333C23.642 22.6677 23.5785 22.6995 22.785 22.414C22.3089 22.2236 21.8645 22.1602 21.7693 22.2236C21.7058 22.3188 21.9915 22.4774 22.4676 22.6043C23.0072 22.7312 23.2929 23.0167 23.2929 23.3973C23.2929 23.8414 23.5151 24 24.0864 24C25.0704 24 25.1339 23.3021 24.2768 22.1919C23.9277 21.7796 23.5468 20.7962 23.4198 20.0032C23.3246 19.2419 23.1024 18.6075 22.9754 18.6075C22.8167 18.6075 22.8167 19.0199 22.9754 19.5274C23.2929 20.7011 23.1659 20.8279 21.7058 20.8279C20.0553 20.8279 19.6426 20.2887 20.6901 19.4322C22.0232 18.3537 24.7847 16.6725 27.8001 15.1182C30.3394 13.8177 30.6251 13.5639 31.2282 12.1999C31.99 10.3918 32.0535 9.78916 31.2917 11.3117C30.9108 12.073 30.5616 12.3902 30.149 12.3268C29.8316 12.2634 29.3554 12.5171 29.1015 12.8661C28.6889 13.4687 28.3397 13.5322 25.4195 13.5322C23.4516 13.5322 22.3406 13.4053 22.6263 13.2467C22.8485 13.0881 22.9754 12.8026 22.8485 12.6123C22.7215 12.3902 22.8167 12.3268 23.1024 12.4537C23.3563 12.5489 23.8325 12.4854 24.1499 12.2951C24.626 12.0096 24.5625 11.9779 23.8642 12.1365C23.3563 12.2316 22.9754 12.2316 22.9754 12.1048C22.9754 11.7558 28.0541 6.42677 28.6254 6.173C28.9428 6.04612 28.9746 5.95096 28.7841 5.95096C28.4984 5.91924 28.3715 5.22138 28.3715 3.57191C28.3715 2.11276 28.2445 1.0977 27.9906 0.970819C27.7366 0.812216 27.7049 1.38319 27.8636 3.19126Z" fill="#012C6F"/>
<path d="M36.9742 2.36668C36.3393 3.54035 37.0694 3.69895 43.6716 3.69895C47.1314 3.69895 49.9563 3.82583 49.9563 3.95271C49.9563 4.0796 48.5915 5.41186 46.9092 6.87101C45.1951 8.36189 43.6081 9.78932 43.3224 10.0431C43.0367 10.3286 41.4179 11.7243 39.7356 13.1834C37.4503 15.1501 36.625 16.0383 36.625 16.5775C36.625 17.0851 36.8472 17.3706 37.355 17.4974C37.7359 17.5926 41.5449 17.6243 45.83 17.5926C53.1305 17.4974 53.6066 17.4657 53.7018 16.8947C53.7653 16.5775 53.6383 16.1969 53.3844 16.0383C53.1622 15.8797 50.0833 15.7528 46.56 15.7528C43.005 15.7528 40.1165 15.6576 40.1483 15.499C40.1483 15.3722 40.9101 14.6426 41.8306 13.8496C42.7511 13.0565 44.4968 11.5657 45.703 10.4872C54.4636 2.77905 54.1462 3.09626 53.4796 2.30324C53.0987 1.85915 51.9878 1.79571 45.1634 1.79571C37.8312 1.79571 37.2598 1.82743 36.9742 2.36668Z" fill="#012C6F"/>
<path d="M59.2881 6.36327C58.3993 6.77564 57.5741 7.34661 57.4788 7.66382C57.1297 8.52028 57.2249 15.1182 57.5741 15.7843C58.1771 16.8628 59.7959 17.4338 62.8749 17.5924L65.8268 17.751V16.958C65.8268 16.1967 65.7316 16.1649 63.0653 15.9429C59.8912 15.7209 59.1611 15.2768 59.1611 13.659V12.5805L66.0807 12.5171L72.9686 12.4219L73.0638 10.0746C73.2225 6.20467 72.2068 5.60198 65.4459 5.60198C61.3513 5.60198 60.7482 5.66542 59.2881 6.36327ZM70.5562 7.9493C70.7784 8.20307 70.9054 8.96436 70.8419 9.6305L70.7467 10.8359H65.0333H59.3198L59.2246 9.7891C59.1611 9.09125 59.3198 8.48855 59.669 8.10791C60.1451 7.56866 60.6847 7.50522 65.192 7.50522C69.1279 7.50522 70.2706 7.60038 70.5562 7.9493Z" fill="#012C6F"/>
<path d="M79.794 6.29979C79.0005 6.71216 78.1752 7.37829 77.9848 7.82238C77.4452 8.86916 77.4452 14.3886 77.9848 15.4036C78.7148 16.8628 80.2384 17.4337 83.4125 17.4655C86.1105 17.4972 86.301 17.4655 86.3962 16.831C86.4914 16.1966 86.301 16.1649 83.73 15.9746C80.5558 15.7525 79.794 15.3085 79.794 13.6273V12.5805H86.6184H93.4428V9.91594C93.4428 7.25141 93.4428 7.21969 92.4271 6.49011C91.4431 5.82398 91.0304 5.76054 86.301 5.66537C81.5398 5.57021 81.1272 5.63365 79.794 6.29979ZM91.1892 7.94926C91.4113 8.20303 91.5383 8.96432 91.4748 9.63046L91.3796 10.8358L85.6027 10.931L79.794 10.9944V9.8525C79.794 7.66378 80.1749 7.50517 85.8249 7.50517C89.7608 7.50517 90.9035 7.60033 91.1892 7.94926Z" fill="#012C6F"/>
<path d="M0.630872 9.40829C0.757838 9.85238 0.853062 10.8357 0.884803 11.6287C0.916545 12.8658 1.01177 13.0562 1.6466 13.1513C2.02749 13.2148 2.34491 13.1196 2.34491 12.9293C2.34491 12.739 2.66232 12.5804 3.04322 12.5804C3.61456 12.5804 3.55108 12.4535 2.5671 11.6922C1.96401 11.2164 1.20222 10.3282 0.948286 9.7255C0.662614 9.09109 0.535648 8.9642 0.630872 9.40829Z" fill="#012C6F"/>
<path d="M11.2333 12.0733C11.2333 13.0249 10.6937 14.4841 10.3446 14.4841C10.2176 14.4841 9.42406 13.818 8.59879 12.9932C6.85302 11.2803 6.56735 11.5024 8.28138 13.2787C9.55103 14.5793 9.58277 14.9916 8.34486 14.3572C7.36088 13.8497 4.56765 12.8981 4.12327 12.8981C3.67889 12.9298 7.32914 14.4841 8.31312 14.7061C8.72575 14.8013 9.26536 15.2137 9.55103 15.626C10.1224 16.5142 11.0746 16.6094 11.519 15.8481C11.6777 15.5309 12.2808 15.1185 12.8839 14.8965L13.9313 14.4841L12.5665 14.6744L11.1698 14.8647L11.392 13.0884C11.519 12.105 11.5507 11.312 11.4238 11.312C11.3285 11.312 11.2333 11.661 11.2333 12.0733Z" fill="#012C6F"/>
<path d="M99.2715 1.4262C99.1374 1.44693 99.0342 1.5402 99.0342 1.6231C99.0342 1.70601 98.9619 1.76819 98.8794 1.76819C98.7452 1.76819 98.7246 2.71124 98.7246 9.59241C98.7246 16.4736 98.7452 17.4166 98.8794 17.4166C98.9619 17.4166 99.0342 17.4892 99.0342 17.5721C99.0342 17.7068 99.9216 17.7275 106.361 17.7275C112.8 17.7275 113.687 17.7068 113.687 17.5721C113.687 17.4477 113.821 17.4166 114.317 17.4166C114.73 17.4166 114.988 17.3648 115.091 17.2612C115.184 17.1783 115.338 17.1057 115.452 17.1057C115.555 17.1057 115.648 17.0332 115.648 16.9503C115.648 16.8467 115.761 16.7948 116.009 16.7948C116.246 16.7948 116.432 16.7223 116.546 16.5876C116.649 16.4736 116.783 16.3803 116.855 16.3803C116.928 16.3803 116.989 16.3078 116.989 16.2249C116.989 16.142 117.062 16.0694 117.144 16.0694C117.227 16.0694 117.299 15.9969 117.299 15.914C117.299 15.8311 117.361 15.7585 117.443 15.7585C117.526 15.7585 117.598 15.5927 117.64 15.3336C117.67 15.1056 117.774 14.8569 117.867 14.7947C118.011 14.6808 118.021 14.1419 118.001 9.25043C117.98 5.25023 117.939 3.80974 117.846 3.75792C117.784 3.71647 117.691 3.55066 117.66 3.39521C117.619 3.23976 117.526 3.1154 117.443 3.1154C117.361 3.1154 117.299 3.02213 117.299 2.90814C117.299 2.79414 117.227 2.70088 117.144 2.70088C117.062 2.70088 116.989 2.65942 116.989 2.60761C116.989 2.55579 116.855 2.48325 116.69 2.44179C116.525 2.4107 116.36 2.30707 116.329 2.22417C116.298 2.14126 116.133 2.07908 115.958 2.07908C115.751 2.07908 115.648 2.02727 115.648 1.92363C115.648 1.79928 115.483 1.76819 114.822 1.76819C114.193 1.76819 113.997 1.7371 113.997 1.6231C113.997 1.52983 113.811 1.46765 113.46 1.41584C112.862 1.35366 99.643 1.35366 99.2715 1.4262ZM114.224 3.07395C114.884 3.13613 114.915 3.15686 114.977 3.43666C115.018 3.60248 115.111 3.7372 115.194 3.7372C115.276 3.7372 115.338 3.79938 115.338 3.88228C115.338 3.95482 115.473 4.04809 115.648 4.07918C115.875 4.131 115.968 4.22427 116.019 4.43153C116.061 4.58698 116.143 4.75279 116.205 4.79424C116.37 4.90824 116.36 13.9761 116.195 14.0797C116.133 14.1211 116.05 14.2766 116.009 14.432C115.968 14.5875 115.875 14.7326 115.792 14.7637C115.71 14.7947 115.648 14.888 115.648 14.9813C115.648 15.0642 115.576 15.1367 115.493 15.1367C115.411 15.1367 115.338 15.2093 115.338 15.2922C115.338 15.3751 115.266 15.4476 115.184 15.4476C115.101 15.4476 115.029 15.5098 115.029 15.5927C115.029 15.686 114.822 15.7585 114.358 15.8103C113.987 15.8414 113.687 15.9243 113.687 15.9762C113.687 16.028 111.2 16.0694 107.496 16.0694C103.791 16.0694 101.304 16.028 101.304 15.9762C101.304 15.9243 101.17 15.8518 100.995 15.8103L100.685 15.7378V9.43697V3.12577L101.026 3.08431C101.583 3.01177 113.491 3.01177 114.224 3.07395Z" fill="black"/>
<path d="M128.088 5.46112C128.057 5.53279 127.756 5.60446 127.299 5.62494C126.883 5.64542 126.551 5.70685 126.551 5.75805C126.551 5.79901 126.323 5.87068 126.032 5.91164C125.699 5.95259 125.513 6.02427 125.513 6.11642C125.513 6.20857 125.388 6.25976 125.149 6.25976C124.9 6.25976 124.786 6.31096 124.786 6.41335C124.786 6.51574 124.682 6.56694 124.474 6.56694C124.266 6.56694 124.162 6.61813 124.162 6.72052C124.162 6.80244 124.09 6.87411 124.007 6.87411C123.924 6.87411 123.851 6.96626 123.851 7.07889C123.851 7.19152 123.789 7.28367 123.705 7.28367C123.622 7.28367 123.55 7.4475 123.508 7.70348C123.477 7.93897 123.394 8.17447 123.311 8.21543C123.207 8.2871 123.176 8.98336 123.176 11.6865C123.176 14.3896 123.207 15.0859 123.311 15.1575C123.394 15.1985 123.477 15.434 123.508 15.6592C123.56 16.0176 123.612 16.0893 123.861 16.1405C124.027 16.1814 124.162 16.2736 124.162 16.3555C124.162 16.4374 124.235 16.4988 124.318 16.4988C124.401 16.4988 124.474 16.5705 124.474 16.6524C124.474 16.7548 124.588 16.806 124.837 16.806C125.076 16.806 125.201 16.8572 125.201 16.9494C125.201 17.0313 125.367 17.1132 125.637 17.1439C125.886 17.1746 126.094 17.2565 126.115 17.3077C126.136 17.3692 126.385 17.4204 126.665 17.4204C127.05 17.4204 127.174 17.4613 127.174 17.574C127.174 17.7071 127.704 17.7275 131.328 17.7275C134.953 17.7275 135.483 17.7071 135.483 17.574C135.483 17.4613 135.607 17.4204 135.991 17.4204C136.272 17.4204 136.521 17.3692 136.542 17.3077C136.563 17.2463 136.802 17.1746 137.072 17.1439C137.393 17.103 137.56 17.0415 137.56 16.9494C137.56 16.8572 137.674 16.806 137.871 16.806C138.079 16.806 138.183 16.7548 138.183 16.6524C138.183 16.5705 138.245 16.4988 138.318 16.4988C138.39 16.4988 138.526 16.4067 138.629 16.2941C138.723 16.1814 138.868 16.0893 138.951 16.0893C139.097 16.0893 139.221 15.7924 139.221 15.393C139.221 15.2599 139.284 15.1678 139.377 15.1678C139.512 15.1678 139.533 14.6968 139.533 11.5329C139.533 8.36902 139.512 7.89802 139.377 7.89802C139.273 7.89802 139.221 7.79563 139.221 7.59085C139.221 7.37582 139.169 7.28367 139.055 7.28367C138.962 7.28367 138.868 7.19152 138.837 7.07889C138.806 6.96626 138.712 6.87411 138.64 6.87411C138.557 6.87411 138.494 6.80244 138.494 6.72052C138.494 6.63861 138.422 6.56694 138.339 6.56694C138.255 6.56694 138.183 6.49526 138.183 6.41335C138.183 6.31096 138.079 6.25976 137.871 6.25976C137.705 6.25976 137.529 6.19833 137.487 6.11642C137.445 6.04474 137.155 5.96283 136.843 5.93211C136.542 5.9014 136.261 5.82972 136.22 5.77853C136.189 5.71709 135.877 5.65566 135.545 5.62494C135.202 5.59422 134.901 5.52255 134.88 5.46112C134.828 5.28705 128.14 5.28705 128.088 5.46112ZM135.898 7.01746C135.898 7.09937 136.064 7.18128 136.334 7.212C136.583 7.24272 136.791 7.32463 136.812 7.37582C136.833 7.43726 136.916 7.48845 136.988 7.48845C137.072 7.48845 137.165 7.64204 137.207 7.84682C137.238 8.0516 137.331 8.20519 137.414 8.20519C137.539 8.20519 137.56 8.7581 137.56 11.5329C137.56 14.3384 137.539 14.8606 137.414 14.8606C137.331 14.8606 137.238 14.9937 137.196 15.1678C137.155 15.3316 137.061 15.4749 136.978 15.4749C136.895 15.4749 136.833 15.5364 136.833 15.6183C136.833 15.7719 136.521 15.8845 136.085 15.8845C135.94 15.8845 135.794 15.9459 135.763 16.0074C135.711 16.1814 126.998 16.2019 126.883 16.0279C126.842 15.9664 126.593 15.8845 126.323 15.8435C125.99 15.7924 125.824 15.7207 125.824 15.6183C125.824 15.5364 125.751 15.4749 125.668 15.4749C125.585 15.4749 125.513 15.4033 125.513 15.3214C125.513 15.2394 125.45 15.1678 125.367 15.1678C125.294 15.1678 125.201 15.0654 125.159 14.9323C125.128 14.8094 125.097 13.2428 125.097 11.451C125.097 8.71714 125.118 8.20519 125.242 8.20519C125.326 8.20519 125.419 8.07208 125.461 7.90826C125.513 7.683 125.606 7.59085 125.834 7.53965C126.001 7.49869 126.136 7.40654 126.136 7.32463C126.136 7.23248 126.25 7.18128 126.499 7.18128C126.748 7.18128 126.863 7.13009 126.863 7.0277C126.863 6.89459 127.434 6.87411 131.38 6.87411C135.129 6.87411 135.898 6.89459 135.898 7.01746Z" fill="black"/>
</svg>
