<svg width="136" height="34" viewBox="0 0 136 34" fill="none" xmlns="http://www.w3.org/2000/svg">
<path d="M42 23.7967V9H47.3962C49.2655 9 50.6833 9.34553 51.6497 10.0366C52.6161 10.7209 53.0993 11.727 53.0993 13.0549C53.0993 13.7798 52.9053 14.4201 52.5173 14.9756C52.1294 15.5244 51.5897 15.9275 50.8985 16.185C51.6885 16.3747 52.3092 16.7575 52.7607 17.3333C53.2192 17.9092 53.4484 18.6138 53.4484 19.4472C53.4484 20.8699 52.9758 21.9472 52.0306 22.6789C51.0854 23.4106 49.7381 23.7832 47.9887 23.7967H42ZM45.1742 17.3537V21.3476H47.8935C48.6412 21.3476 49.2232 21.1782 49.6394 20.8394C50.0626 20.4939 50.2742 20.0196 50.2742 19.4167C50.2742 18.0617 49.5441 17.374 48.084 17.3537H45.1742ZM45.1742 15.1992H47.5232C49.1244 15.1721 49.925 14.5589 49.925 13.3598C49.925 12.689 49.7205 12.208 49.3113 11.9167C48.9093 11.6186 48.2709 11.4695 47.3962 11.4695H45.1742V15.1992Z" fill="#99CEFF"/>
<path d="M60.9079 24C59.2291 24 57.8606 23.5054 56.8026 22.5163C55.7515 21.5271 55.226 20.2094 55.226 18.563V18.2785C55.226 17.1741 55.4482 16.1883 55.8926 15.3211C56.337 14.4472 56.9648 13.7764 57.776 13.3089C58.5943 12.8347 59.5254 12.5976 60.5693 12.5976C62.1353 12.5976 63.3662 13.0718 64.262 14.0203C65.1649 14.9688 65.6164 16.3137 65.6164 18.0549V19.2541H58.3262C58.425 19.9722 58.7212 20.5481 59.215 20.9817C59.7158 21.4153 60.3471 21.6321 61.109 21.6321C62.287 21.6321 63.2075 21.2222 63.8706 20.4024L65.373 22.0183C64.9145 22.6416 64.2938 23.1294 63.5108 23.4817C62.7278 23.8272 61.8602 24 60.9079 24ZM60.5588 14.9756C59.9521 14.9756 59.4584 15.1721 59.0774 15.565C58.7036 15.958 58.4638 16.5203 58.3579 17.252H62.6114V17.0183C62.5973 16.3679 62.4139 15.8665 62.0612 15.5142C61.7085 15.1551 61.2077 14.9756 60.5588 14.9756Z" fill="#99CEFF"/>
<path d="M71.0232 10.0976V12.8008H72.9806V14.9553H71.0232V20.4431C71.0232 20.8496 71.1043 21.1409 71.2665 21.3171C71.4288 21.4932 71.7392 21.5813 72.1977 21.5813C72.5362 21.5813 72.836 21.5576 73.097 21.5102V23.7358C72.4974 23.9119 71.8802 24 71.2454 24C69.101 24 68.0077 22.96 67.9653 20.8801V14.9553H66.2936V12.8008H67.9653V10.0976H71.0232Z" fill="#99CEFF"/>
<path d="M78.3451 10.0976V12.8008H80.3026V14.9553H78.3451V20.4431C78.3451 20.8496 78.4262 21.1409 78.5885 21.3171C78.7507 21.4932 79.0611 21.5813 79.5196 21.5813C79.8582 21.5813 80.158 21.5576 80.419 21.5102V23.7358C79.8194 23.9119 79.2022 24 78.5673 24C76.4229 24 75.3296 22.96 75.2873 20.8801V14.9553H73.6155V12.8008H75.2873V10.0976H78.3451Z" fill="#99CEFF"/>
<path d="M87.2753 24C85.5965 24 84.2281 23.5054 83.17 22.5163C82.1189 21.5271 81.5934 20.2094 81.5934 18.563V18.2785C81.5934 17.1741 81.8156 16.1883 82.26 15.3211C82.7044 14.4472 83.3322 13.7764 84.1434 13.3089C84.9617 12.8347 85.8928 12.5976 86.9367 12.5976C88.5027 12.5976 89.7336 13.0718 90.6294 14.0203C91.5323 14.9688 91.9838 16.3137 91.9838 18.0549V19.2541H84.6936C84.7924 19.9722 85.0886 20.5481 85.5824 20.9817C86.0832 21.4153 86.7145 21.6321 87.4764 21.6321C88.6544 21.6321 89.5749 21.2222 90.238 20.4024L91.7404 22.0183C91.2819 22.6416 90.6612 23.1294 89.8782 23.4817C89.0952 23.8272 88.2276 24 87.2753 24ZM86.9262 14.9756C86.3195 14.9756 85.8258 15.1721 85.4448 15.565C85.071 15.958 84.8312 16.5203 84.7253 17.252H88.9788V17.0183C88.9647 16.3679 88.7813 15.8665 88.4286 15.5142C88.0759 15.1551 87.5751 14.9756 86.9262 14.9756Z" fill="#99CEFF"/>
<path d="M100.163 15.5549C99.7466 15.5007 99.3798 15.4736 99.0624 15.4736C97.9055 15.4736 97.1472 15.8496 96.7875 16.6016V23.7967H93.7296V12.8008H96.6182L96.7028 14.1118C97.3165 13.1023 98.1665 12.5976 99.2528 12.5976C99.5914 12.5976 99.9088 12.6416 100.205 12.7297L100.163 15.5549Z" fill="#99CEFF"/>
<path d="M111.389 9L115.346 19.7317L119.282 9H123.451V23.7967H120.266V19.752L120.584 12.7703L116.425 23.7967H114.246L110.098 12.7805L110.416 19.752V23.7967H107.241V9H111.389Z" fill="#99CEFF"/>
<path d="M131.292 24C129.613 24 128.244 23.5054 127.186 22.5163C126.135 21.5271 125.61 20.2094 125.61 18.563V18.2785C125.61 17.1741 125.832 16.1883 126.276 15.3211C126.721 14.4472 127.348 13.7764 128.16 13.3089C128.978 12.8347 129.909 12.5976 130.953 12.5976C132.519 12.5976 133.75 13.0718 134.646 14.0203C135.549 14.9688 136 16.3137 136 18.0549V19.2541H128.71C128.809 19.9722 129.105 20.5481 129.599 20.9817C130.099 21.4153 130.731 21.6321 131.493 21.6321C132.671 21.6321 133.591 21.2222 134.254 20.4024L135.757 22.0183C135.298 22.6416 134.677 23.1294 133.894 23.4817C133.111 23.8272 132.244 24 131.292 24ZM130.942 14.9756C130.336 14.9756 129.842 15.1721 129.461 15.565C129.087 15.958 128.847 16.5203 128.742 17.252H132.995V17.0183C132.981 16.3679 132.798 15.8665 132.445 15.5142C132.092 15.1551 131.591 14.9756 130.942 14.9756Z" fill="#99CEFF"/>
<rect x="2" y="2" width="30" height="30" rx="5" stroke="#99CEFF" stroke-width="3"/>
<path d="M8.97341 25.1694C8.96582 25.1686 8.95362 25.1672 8.93818 25.1646C8.89972 25.1582 8.86408 25.1486 8.83622 25.1382C8.83388 25.1188 8.83203 25.0925 8.83203 25.0581C8.83203 24.6375 9.08568 23.4116 10.2054 22.2918C11.2812 21.216 13.288 20.1128 17 20.1128C20.712 20.1128 22.7187 21.216 23.7945 22.2918C24.9143 23.4116 25.1679 24.6375 25.1679 25.0581C25.1679 25.0925 25.1661 25.1188 25.1637 25.1382C25.1359 25.1486 25.1002 25.1582 25.0618 25.1646C25.0463 25.1672 25.0341 25.1686 25.0266 25.1694H8.97341ZM25.1543 25.1836C25.1542 25.1836 25.1547 25.1817 25.1563 25.1784C25.1552 25.182 25.1544 25.1837 25.1543 25.1836ZM8.84565 25.1836C8.84556 25.1837 8.84481 25.1821 8.8437 25.1784C8.8452 25.1817 8.84575 25.1835 8.84565 25.1836ZM19.3575 14.5249C18.7322 15.1502 17.8842 15.5014 17 15.5014C16.1158 15.5014 15.2677 15.1502 14.6425 14.5249C14.0173 13.8997 13.666 13.0517 13.666 12.1675C13.666 11.2832 14.0173 10.4352 14.6425 9.80999C15.2677 9.18475 16.1158 8.8335 17 8.8335C17.8842 8.8335 18.7322 9.18475 19.3575 9.80999C19.9827 10.4352 20.334 11.2832 20.334 12.1675C20.334 13.0517 19.9827 13.8997 19.3575 14.5249Z" stroke="#99CEFF" stroke-width="3"/>
</svg>
