<svg width="96" height="31" viewBox="0 0 96 31" fill="none" xmlns="http://www.w3.org/2000/svg">
<path d="M45.5281 9.7345H40.9213V24H39.0519V9.7345H34.4562V8.04312H45.5281V9.7345ZM53.3953 24H51.5704V22.2196H51.5259C50.7321 23.5846 49.5637 24.2671 48.0207 24.2671C46.8857 24.2671 45.9955 23.9666 45.3501 23.3657C44.7121 22.7648 44.3931 21.9674 44.3931 20.9733C44.3931 18.8442 45.6468 17.6054 48.1542 17.2567L51.5704 16.7782C51.5704 14.842 50.7877 13.8739 49.2225 13.8739C47.8501 13.8739 46.6112 14.3413 45.5059 15.276V13.4066C46.626 12.6944 47.9168 12.3383 49.3783 12.3383C52.0563 12.3383 53.3953 13.7553 53.3953 16.5891V24ZM51.5704 18.2359L48.8219 18.6143C47.9762 18.733 47.3382 18.9444 46.9079 19.2485C46.4777 19.5453 46.2625 20.0757 46.2625 20.8398C46.2625 21.3962 46.4591 21.8524 46.8523 22.2085C47.2529 22.5571 47.7833 22.7315 48.4435 22.7315C49.3486 22.7315 50.0941 22.4162 50.6802 21.7856C51.2736 21.1476 51.5704 20.3428 51.5704 19.3709V18.2359ZM62.7758 14.4526C62.4568 14.2078 61.9969 14.0854 61.396 14.0854C60.6171 14.0854 59.9642 14.4526 59.4375 15.187C58.9183 15.9214 58.6586 16.9229 58.6586 18.1914V24H56.8337V12.6054H58.6586V14.9533H58.7031C58.9628 14.1521 59.3596 13.529 59.8938 13.0839C60.4279 12.6314 61.0251 12.4051 61.6853 12.4051C62.1601 12.4051 62.5236 12.457 62.7758 12.5609V14.4526ZM74.482 23.0875C74.482 27.2715 72.479 29.3635 68.4731 29.3635C67.0636 29.3635 65.8322 29.0964 64.7788 28.5623V26.7374C66.0621 27.4495 67.2862 27.8056 68.4508 27.8056C71.255 27.8056 72.6571 26.3145 72.6571 23.3323V22.0861H72.6125C71.7446 23.5401 70.439 24.2671 68.6956 24.2671C67.2787 24.2671 66.1363 23.7626 65.2684 22.7537C64.4078 21.7374 63.9776 20.3761 63.9776 18.6699C63.9776 16.7337 64.4412 15.1944 65.3685 14.052C66.3032 12.9096 67.5792 12.3383 69.1964 12.3383C70.732 12.3383 71.8707 12.9541 72.6125 14.1855H72.6571V12.6054H74.482V23.0875ZM72.6571 18.848V17.1677C72.6571 16.2627 72.3492 15.4874 71.7335 14.842C71.1252 14.1966 70.3648 13.8739 69.4523 13.8739C68.3247 13.8739 67.4419 14.2857 66.804 15.1091C66.166 15.9251 65.847 17.0713 65.847 18.5475C65.847 19.816 66.1512 20.8324 66.7595 21.5965C67.3752 22.3531 68.1875 22.7315 69.1964 22.7315C70.2201 22.7315 71.051 22.368 71.689 21.641C72.3344 20.914 72.6571 19.983 72.6571 18.848ZM87.3343 18.7589H79.2891C79.3187 20.0275 79.66 21.0067 80.3128 21.6966C80.9656 22.3865 81.8632 22.7315 83.0057 22.7315C84.289 22.7315 85.4685 22.3086 86.5442 21.4629V23.1766C85.5427 23.9036 84.2186 24.2671 82.5717 24.2671C80.9619 24.2671 79.6971 23.7515 78.7772 22.7203C77.8573 21.6818 77.3974 20.2241 77.3974 18.3472C77.3974 16.5742 77.8981 15.1314 78.8996 14.0186C79.9085 12.8984 81.1585 12.3383 82.6496 12.3383C84.1407 12.3383 85.2942 12.8205 86.1102 13.7849C86.9263 14.7493 87.3343 16.0883 87.3343 17.802V18.7589ZM85.4648 17.2122C85.4574 16.1588 85.2015 15.3391 84.697 14.753C84.2 14.167 83.5064 13.8739 82.6162 13.8739C81.7557 13.8739 81.025 14.1818 80.4241 14.7975C79.8232 15.4133 79.4523 16.2181 79.3113 17.2122H85.4648ZM95.3906 23.8887C94.9603 24.1261 94.3928 24.2448 93.6881 24.2448C91.6925 24.2448 90.6948 23.1321 90.6948 20.9065V14.1633H88.7363V12.6054H90.6948V9.82352L92.5197 9.23376V12.6054H95.3906V14.1633H92.5197V20.5838C92.5197 21.3479 92.6495 21.8932 92.9092 22.2196C93.1688 22.546 93.5991 22.7092 94.2 22.7092C94.6599 22.7092 95.0568 22.5831 95.3906 22.3309V23.8887Z" fill="#FF8600"/>
<path d="M15 30C23.2843 30 30 23.2843 30 15C30 6.71573 23.2843 0 15 0C6.71573 0 0 6.71573 0 15C0 23.2843 6.71573 30 15 30Z" fill="#FF8600"/>
<path d="M14.9999 24.035C19.9899 24.035 24.035 19.9899 24.035 14.9999C24.035 10.01 19.9899 5.96484 14.9999 5.96484C10.01 5.96484 5.96484 10.01 5.96484 14.9999C5.96484 19.9899 10.01 24.035 14.9999 24.035Z" fill="white"/>
<g filter="url(#filter0_d_462_197)">
<path d="M14.8237 15.4385C16.6162 15.4385 18.0694 13.9854 18.0694 12.1929C18.0694 10.4004 16.6162 8.94727 14.8237 8.94727C13.0312 8.94727 11.5781 10.4004 11.5781 12.1929C11.5781 13.9854 13.0312 15.4385 14.8237 15.4385Z" fill="#FF8600"/>
</g>
<defs>
<filter id="filter0_d_462_197" x="5.57812" y="5.94727" width="18.4922" height="18.4912" filterUnits="userSpaceOnUse" color-interpolation-filters="sRGB">
<feFlood flood-opacity="0" result="BackgroundImageFix"/>
<feColorMatrix in="SourceAlpha" type="matrix" values="0 0 0 0 0 0 0 0 0 0 0 0 0 0 0 0 0 0 127 0" result="hardAlpha"/>
<feOffset dy="3"/>
<feGaussianBlur stdDeviation="3"/>
<feColorMatrix type="matrix" values="0 0 0 0 0 0 0 0 0 0 0 0 0 0 0 0 0 0 0.161 0"/>
<feBlend mode="normal" in2="BackgroundImageFix" result="effect1_dropShadow_462_197"/>
<feBlend mode="normal" in="SourceGraphic" in2="effect1_dropShadow_462_197" result="shape"/>
</filter>
</defs>
</svg>
