<svg width="145" height="29" viewBox="0 0 145 29" fill="none" xmlns="http://www.w3.org/2000/svg">
<path d="M18.2245 0.0390396C17.9989 0.134202 17.8056 0.387968 17.8056 0.610013C17.8056 1.14927 16.8388 1.72024 15.8075 1.75196C15.2597 1.78368 15.2275 1.84712 15.6464 1.94228C16.4521 2.16433 16.3232 2.4181 14.9052 3.27456C14.1962 3.71865 13.6806 4.13102 13.7773 4.19446C13.8417 4.28962 14.7118 3.81381 15.6786 3.17939C17.8378 1.75196 18.4501 1.72024 18.4501 2.98907C18.4501 3.4966 18.6112 4.28962 18.8368 4.73371C19.1268 5.39985 19.1268 5.71705 18.8368 6.19286C18.6112 6.51007 18.4501 7.04932 18.4501 7.36653C18.4501 7.68374 18.2567 8.12783 18.0634 8.3816C17.7089 8.76224 17.7411 8.76224 18.1923 8.41332C18.4823 8.19127 18.9013 8.09611 19.0946 8.22299C19.6102 8.5402 19.5136 12.0295 18.9335 12.5053C18.5468 12.8225 18.579 13.0128 19.1913 13.9327C19.578 14.5037 19.9969 14.9161 20.1581 14.8209C20.287 14.7575 20.6092 14.8526 20.8671 15.043C21.1893 15.2967 21.3504 15.3284 21.3504 15.1064C21.3504 14.9161 21.2215 14.6623 21.0282 14.5671C20.2548 14.0913 20.7382 12.537 22.2206 10.7924C23.3807 9.39666 23.8641 9.01601 24.3797 9.14289C24.7664 9.20634 25.6043 9.39666 26.2811 9.49182C26.9256 9.6187 27.4734 9.84075 27.4734 9.99935C27.4734 10.158 27.7312 10.2848 28.0535 10.2848C28.5691 10.2531 28.5691 10.2531 28.0213 9.84075C27.699 9.58698 26.8934 9.3015 26.2488 9.17461C25.0242 8.95257 24.1541 8.47676 24.3797 8.09611C24.4442 8.00095 23.7352 7.90578 22.7684 7.87406C20.7382 7.87406 19.4169 6.92244 19.4169 5.52673C19.4169 5.08264 19.2557 4.54339 19.0624 4.35306C18.869 4.16274 18.7724 3.62348 18.8368 3.11595C18.9013 2.44982 19.1268 2.16433 19.6747 2.10089C20.0614 2.03745 20.3837 2.13261 20.3837 2.29121C20.3837 2.60842 22.3172 3.40144 22.5428 3.17939C22.6395 3.11595 22.3817 2.95735 22.0272 2.83047C21.0604 2.54498 21.1893 1.94228 22.1561 2.10089C22.6073 2.19605 22.9618 2.13261 22.9618 1.94228C22.9618 1.78368 22.4784 1.72024 21.8338 1.8154C21.1571 1.91056 20.7704 1.87884 20.8671 1.68852C20.996 1.52991 20.7704 1.40303 20.4159 1.40303C20.0292 1.40303 19.7391 1.18099 19.7391 0.92722C19.7391 0.387968 18.8046 -0.151285 18.2245 0.0390396ZM22.3495 8.28643C23.703 8.5402 23.6385 8.6988 21.286 11.3633C20.1903 12.6005 19.8036 12.2515 19.7391 9.96763C19.6747 7.58858 19.6425 7.65202 20.577 7.87406C21.0604 8.00095 21.8338 8.19127 22.3495 8.28643Z" fill="#012C6F"/>
<path d="M5.04383 3.90889C4.97938 3.97233 4.91492 4.35298 4.91492 4.76535C4.91492 5.43148 4.59266 5.90729 2.75576 7.96915C2.33682 8.41324 2.01456 8.88905 2.01456 9.04765C2.01456 9.17454 1.6923 9.33314 1.30558 9.39658C0.242114 9.52346 0.242114 11.3633 1.27336 11.4902C1.75675 11.5536 2.04679 11.9025 2.17569 12.5369C2.3046 13.0762 2.46573 13.4251 2.56241 13.33C2.65908 13.2348 2.56241 12.7273 2.36905 12.1563C2.17569 11.5853 2.04679 11.0778 2.11124 11.0461C2.17569 10.9826 2.98135 11.4267 3.94814 12.0611C5.97839 13.3617 6.8485 13.8375 6.8485 13.6472C6.8485 13.5837 5.91394 12.9176 4.75379 12.2197C3.59365 11.4902 2.65908 10.824 2.65908 10.7289C2.65908 10.6337 4.8827 10.602 7.58971 10.6971L12.4881 10.8557L7.42857 10.5068C4.65711 10.2848 2.27237 10.031 2.14346 9.90411C2.01456 9.77723 2.62686 8.73044 3.49697 7.62022C4.8827 5.81213 5.23719 5.55837 6.42956 5.36804C7.97642 5.146 11.0057 5.4632 11.618 5.93901C11.8758 6.16106 12.0047 6.09762 12.0047 5.71697C12.0047 5.36804 11.7147 5.20944 10.9735 5.20944C9.4266 5.20944 7.49303 4.86051 7.49303 4.57502C7.49303 4.44814 8.16978 4.19437 9.03989 4.03577C10.4578 3.782 10.3612 3.75028 7.87974 3.782C6.39733 3.782 5.14051 3.84544 5.04383 3.90889Z" fill="#012C6F"/>
<path d="M12.6804 7.58801C13.0671 8.19071 13.5183 8.69824 13.7116 8.69824C13.8728 8.69824 13.8083 8.44448 13.5505 8.12727C13.2927 7.84178 12.9704 7.33425 12.8737 7.01704C12.7448 6.73155 12.5192 6.47778 12.3581 6.47778C12.1647 6.47778 12.3259 6.98532 12.6804 7.58801Z" fill="#012C6F"/>
<path d="M32.3392 6.51023C32.3069 6.63711 32.887 7.71559 33.6282 8.88924C34.3372 10.0946 34.8529 10.729 34.724 10.3166C34.5951 9.936 34.1761 9.11128 33.7894 8.54032C33.4349 7.96936 32.9515 7.23979 32.7259 6.92259C32.5325 6.57367 32.3392 6.41507 32.3392 6.51023Z" fill="#012C6F"/>
<path d="M14.0674 9.39706C14.164 9.71427 14.3574 10.1901 14.4541 10.4438C14.6152 10.7928 14.3896 10.9196 13.584 10.9514L12.4883 10.9831L13.3906 11.2369C14.3252 11.5223 15.6142 12.6326 15.9687 13.4573C16.0976 13.7111 16.0976 13.4573 16.0009 12.8863C15.8075 11.8713 15.8398 11.8078 16.5487 11.9981C17.1933 12.1885 17.2255 12.1568 16.7743 11.8713C16.0009 11.3955 16.0331 10.6342 16.9032 9.68254C17.58 8.92125 17.58 8.92125 16.6454 9.71427C16.1298 10.2218 15.5175 10.6024 15.2919 10.6024C15.0986 10.6024 14.6796 10.2218 14.4218 9.71427C14.1318 9.23846 13.9707 9.11157 14.0674 9.39706Z" fill="#012C6F"/>
<path d="M35.0783 11.712C34.9494 12.0927 34.7238 12.1244 34.0793 11.8706C32.6935 11.3631 32.3712 11.5534 33.6926 12.0927C35.0139 12.6319 35.175 12.9492 34.3371 13.4567C33.8537 13.7422 33.9181 13.7739 34.6594 13.6153C35.4973 13.4567 35.5295 13.4884 35.3684 14.3131C35.175 15.1379 35.2072 15.1379 35.5617 14.5669C35.7873 14.218 36.2385 13.7422 36.5607 13.5201C37.3986 12.9174 37.2697 12.283 36.2063 11.7438C35.4006 11.2997 35.2394 11.2997 35.0783 11.712Z" fill="#012C6F"/>
<path d="M14.582 13.2986C14.582 13.5524 14.6465 13.7744 14.7109 13.7744C14.7754 13.7744 14.9043 13.5524 15.0332 13.2986C15.1299 13.0448 15.0655 12.8228 14.9043 12.8228C14.7109 12.8228 14.582 13.0448 14.582 13.2986Z" fill="#012C6F"/>
<path d="M7.16992 14.2177C7.16992 14.2811 7.42773 14.5349 7.74999 14.7569C8.23338 15.1693 8.26561 15.1376 7.84667 14.63C7.42773 14.1225 7.16992 13.9639 7.16992 14.2177Z" fill="#012C6F"/>
<path d="M14.3242 15.0431C14.3242 15.6458 14.3887 15.8996 14.4854 15.5824C14.5498 15.2969 14.5498 14.7893 14.4854 14.4721C14.3887 14.1867 14.3242 14.4404 14.3242 15.0431Z" fill="#012C6F"/>
<path d="M30.8579 15.1064C28.441 16.1532 28.2476 16.2483 28.4732 16.4387C28.5376 16.5021 29.7622 16.0263 31.1802 15.3601C34.2739 13.8693 34.0483 13.7106 30.8579 15.1064Z" fill="#012C6F"/>
<path d="M16.5176 14.5674C16.5176 15.1384 17.291 17.2637 17.4844 17.2637C17.6133 17.2637 17.5166 16.661 17.2588 15.9314C16.7754 14.5674 16.5176 14.0599 16.5176 14.5674Z" fill="#012C6F"/>
<path d="M8.45898 15.4872C8.45898 15.5506 8.71679 15.8044 9.03905 16.0265C9.52244 16.4388 9.55467 16.4071 9.13573 15.8996C8.71679 15.392 8.45898 15.2334 8.45898 15.4872Z" fill="#012C6F"/>
<path d="M20.4492 16.1537C20.4492 16.6613 20.5137 16.8516 20.6104 16.5344C20.6748 16.2489 20.6748 15.8048 20.6104 15.5827C20.5137 15.3924 20.4492 15.6144 20.4492 16.1537Z" fill="#012C6F"/>
<path d="M21.8976 16.3119C22.2199 16.6608 22.5099 16.9463 22.5744 16.9463C22.6066 16.9463 22.5099 16.6608 22.3166 16.3119C22.1232 15.963 21.8332 15.6775 21.672 15.6775C21.4787 15.6775 21.6076 15.963 21.8976 16.3119Z" fill="#012C6F"/>
<path d="M30.8241 8.19125L31.0496 10.6337L29.825 10.4751C28.9872 10.3483 28.8583 10.38 29.4061 10.5386C29.8573 10.6655 30.2118 11.0144 30.2118 11.2682C30.2118 11.5536 28.7938 13.2348 27.0858 15.0746C24.0888 18.215 23.9277 18.3419 23.4765 17.7392C23.2187 17.3902 22.8964 17.1999 22.7675 17.3585C22.6386 17.4854 22.7031 17.5806 22.8964 17.5806C23.122 17.5806 23.2831 17.8026 23.2831 18.0564C23.2831 18.3736 22.9609 18.5322 22.1874 18.5322C21.2851 18.5322 21.0595 18.4053 20.9306 17.8026L20.8017 17.1048L20.7373 17.8026C20.705 18.437 20.5117 18.5322 19.4482 18.5322C18.5137 18.5322 18.1269 18.3736 18.0303 17.9612C17.9014 17.5488 17.8691 17.6123 17.8369 18.1198C17.8047 18.5322 17.6113 18.8494 17.3213 18.8494C17.0635 18.8494 16.8379 18.9763 16.8379 19.1666C16.8379 19.3569 17.1279 19.3569 17.6113 19.1666C18.5459 18.8177 30.6951 18.7542 30.6951 19.1032C30.6951 19.3252 28.6971 19.9596 25.1522 20.8478C24.3466 21.0698 23.5409 21.3553 23.3798 21.5139C23.2509 21.6725 23.412 21.7042 23.7665 21.6091C24.121 21.5139 25.1522 21.2602 26.0224 21.0381C26.9247 20.8478 27.7626 20.5306 27.9559 20.4037C28.3104 20.0548 29.4061 20.0231 29.4061 20.372C29.4061 20.6575 25.2167 22.6559 24.6366 22.6559C24.411 22.6559 24.2499 22.8462 24.2177 23.0365C24.2177 23.2586 23.7021 23.8613 23.0575 24.4005L21.9296 25.3204L21.3173 24.5908C20.5439 23.6392 20.5439 22.9731 21.3173 22.9731C21.6396 22.9731 21.9941 22.751 22.123 22.4973C22.2197 22.2118 22.123 22.0215 21.8329 22.0215C21.1562 22.0215 21.2207 21.8311 22.2197 20.4989C23.0575 19.3569 23.0575 19.3569 21.7685 20.6575C21.0273 21.4188 20.2216 22.0215 19.9316 22.0215C19.6738 22.0215 19.3838 22.1483 19.2871 22.3069C18.997 22.751 19.416 23.6075 19.9316 23.6075C20.1572 23.6075 20.5761 24.0199 20.8662 24.5591C21.414 25.5742 22.3163 26.272 23.6054 26.621C24.2499 26.7796 24.3144 26.7478 23.9277 26.4623C23.5409 26.2086 23.7665 26.1451 24.8944 26.2086C26.119 26.3037 26.3446 26.3989 26.4413 27.0333C26.538 27.6677 26.4735 27.6995 25.6679 27.414C25.1845 27.2236 24.7333 27.1602 24.6366 27.2236C24.5722 27.3188 24.8622 27.4774 25.3456 27.6043C25.8934 27.7312 26.1835 28.0167 26.1835 28.3973C26.1835 28.8414 26.4091 29 26.9891 29C27.9881 29 28.0526 28.3021 27.1825 27.1919C26.828 26.7796 26.4413 25.7962 26.3124 25.0032C26.2157 24.2419 25.9901 23.6075 25.8612 23.6075C25.7001 23.6075 25.7001 24.0199 25.8612 24.5274C26.1835 25.7011 26.0546 25.8279 24.5722 25.8279C22.8964 25.8279 22.4775 25.2887 23.5409 24.4322C24.8944 23.3537 27.6981 21.6725 30.7596 20.1182C33.3377 18.8177 33.6277 18.5639 34.24 17.1999C35.0135 15.3918 35.0779 14.7891 34.3045 16.3117C33.9178 17.073 33.5633 17.3902 33.1443 17.3268C32.8221 17.2634 32.3387 17.5171 32.0809 17.866C31.6619 18.4687 31.3074 18.5322 28.3426 18.5322C26.3446 18.5322 25.2167 18.4053 25.5067 18.2467C25.7323 18.0881 25.8612 17.8026 25.7323 17.6123C25.6034 17.3902 25.7001 17.3268 25.9901 17.4537C26.2479 17.5488 26.7313 17.4854 27.0536 17.2951C27.537 17.0096 27.4725 16.9779 26.7636 17.1365C26.2479 17.2316 25.8612 17.2316 25.8612 17.1048C25.8612 16.7558 31.0174 11.4268 31.5975 11.173C31.9197 11.0461 31.952 10.9509 31.7586 10.9509C31.4686 10.9192 31.3397 10.2214 31.3397 8.57189C31.3397 7.11274 31.2108 6.09768 30.953 5.9708C30.6951 5.8122 30.6629 6.38317 30.8241 8.19125Z" fill="#012C6F"/>
<path d="M40.0732 7.36663C39.4287 8.5403 40.1699 8.6989 46.873 8.6989C50.3856 8.6989 53.2537 8.82578 53.2537 8.95267C53.2537 9.07955 51.868 10.4118 50.16 11.871C48.4198 13.3619 46.8085 14.7893 46.5185 15.0431C46.2284 15.3285 44.5849 16.7243 42.8769 18.1834C40.5566 20.1501 39.7188 21.0383 39.7188 21.5775C39.7188 22.0851 39.9443 22.3706 40.46 22.4974C40.8467 22.5926 44.7138 22.6243 49.0643 22.5926C56.4764 22.4974 56.9597 22.4657 57.0564 21.8947C57.1209 21.5775 56.992 21.1969 56.7342 21.0383C56.5086 20.8797 53.3826 20.7528 49.8055 20.7528C46.1962 20.7528 43.2636 20.6576 43.2959 20.499C43.2959 20.3721 44.0693 19.6426 45.0038 18.8495C45.9384 18.0565 47.7108 16.5657 48.9354 15.4871C57.8299 7.779 57.5076 8.09621 56.8308 7.30319C56.4441 6.8591 55.3162 6.79565 48.3876 6.79565C40.9433 6.79565 40.3633 6.82737 40.0732 7.36663Z" fill="#012C6F"/>
<path d="M62.7273 11.3632C61.8249 11.7756 60.9871 12.3466 60.8904 12.6638C60.5359 13.5202 60.6326 20.1182 60.9871 20.7843C61.5994 21.8628 63.2429 22.4338 66.3689 22.5924L69.3659 22.751V21.958C69.3659 21.1967 69.2692 21.1649 66.5622 20.9429C63.3396 20.7208 62.5984 20.2768 62.5984 18.659V17.5805L69.6237 17.5171L76.6168 17.4219L76.7135 15.0746C76.8746 11.2046 75.8434 10.6019 68.9792 10.6019C64.822 10.6019 64.2097 10.6654 62.7273 11.3632ZM74.1676 12.9493C74.3932 13.203 74.5221 13.9643 74.4577 14.6305L74.361 15.8359H68.5602H62.7595L62.6628 14.7891C62.5984 14.0912 62.7595 13.4885 63.114 13.1079C63.5974 12.5686 64.1452 12.5052 68.7214 12.5052C72.7174 12.5052 73.8776 12.6003 74.1676 12.9493Z" fill="#012C6F"/>
<path d="M83.5466 11.2998C82.741 11.7121 81.9031 12.3783 81.7097 12.8224C81.1619 13.8691 81.1619 19.3885 81.7097 20.4036C82.4509 21.8628 83.9978 22.4337 87.2204 22.4655C89.9596 22.4972 90.153 22.4655 90.2497 21.831C90.3463 21.1966 90.153 21.1649 87.5427 20.9746C84.32 20.7525 83.5466 20.3084 83.5466 18.6272V17.5805H90.4752H97.4039V14.9159C97.4039 12.2514 97.4039 12.2197 96.3726 11.4901C95.3736 10.8239 94.9547 10.7605 90.153 10.6653C85.319 10.5702 84.9001 10.6336 83.5466 11.2998ZM95.1158 12.9492C95.3414 13.203 95.4703 13.9643 95.4058 14.6304L95.3092 15.8358L89.444 15.931L83.5466 15.9944V14.8525C83.5466 12.6637 83.9333 12.5051 89.6696 12.5051C93.6656 12.5051 94.8258 12.6003 95.1158 12.9492Z" fill="#012C6F"/>
<path d="M3.17432 14.4083C3.30322 14.8524 3.3999 15.8357 3.43213 16.6287C3.46436 17.8658 3.56104 18.0562 4.20557 18.1513C4.59228 18.2148 4.91455 18.1196 4.91455 17.9293C4.91455 17.739 5.23681 17.5804 5.62353 17.5804C6.2036 17.5804 6.13915 17.4535 5.14013 16.6922C4.52783 16.2164 3.75439 15.3282 3.49658 14.7255C3.20655 14.0911 3.07764 13.9642 3.17432 14.4083Z" fill="#012C6F"/>
<path d="M13.9383 17.0733C13.9383 18.0249 13.3904 19.4841 13.0359 19.4841C12.907 19.4841 12.1014 18.818 11.2635 17.9932C9.49103 16.2803 9.20099 16.5023 10.9412 18.2787C12.2303 19.5793 12.2625 19.9916 11.0057 19.3572C10.0067 18.8497 7.17071 17.8981 6.71954 17.8981C6.26837 17.9298 9.97443 19.4841 10.9734 19.7061C11.3924 19.8013 11.9402 20.2137 12.2303 20.626C12.8104 21.5142 13.7772 21.6094 14.2283 20.8481C14.3895 20.5309 15.0018 20.1185 15.6141 19.8965L16.6776 19.4841L15.2918 19.6744L13.8738 19.8647L14.0994 18.0884C14.2283 17.105 14.2606 16.312 14.1317 16.312C14.035 16.312 13.9383 16.6609 13.9383 17.0733Z" fill="#012C6F"/>
<path d="M103.323 6.42614C103.187 6.44687 103.082 6.54013 103.082 6.62304C103.082 6.70595 103.009 6.76813 102.925 6.76813C102.789 6.76813 102.768 7.71118 102.768 14.5924C102.768 21.4736 102.789 22.4166 102.925 22.4166C103.009 22.4166 103.082 22.4892 103.082 22.5721C103.082 22.7068 103.983 22.7275 110.52 22.7275C117.058 22.7275 117.959 22.7068 117.959 22.5721C117.959 22.4477 118.095 22.4166 118.598 22.4166C119.017 22.4166 119.279 22.3648 119.384 22.2612C119.478 22.1783 119.635 22.1057 119.75 22.1057C119.855 22.1057 119.949 22.0332 119.949 21.9503C119.949 21.8467 120.065 21.7948 120.316 21.7948C120.557 21.7948 120.746 21.7223 120.861 21.5876C120.966 21.4736 121.102 21.3803 121.175 21.3803C121.249 21.3803 121.311 21.3078 121.311 21.2249C121.311 21.142 121.385 21.0694 121.469 21.0694C121.552 21.0694 121.626 20.9969 121.626 20.914C121.626 20.8311 121.689 20.7585 121.772 20.7585C121.856 20.7585 121.93 20.5927 121.971 20.3336C122.003 20.1056 122.108 19.8569 122.202 19.7947C122.349 19.6807 122.359 19.1419 122.338 14.2504C122.317 10.2502 122.275 8.80969 122.181 8.75787C122.118 8.71642 122.024 8.55061 121.992 8.39516C121.951 8.23971 121.856 8.11535 121.772 8.11535C121.689 8.11535 121.626 8.02208 121.626 7.90808C121.626 7.79409 121.552 7.70082 121.469 7.70082C121.385 7.70082 121.311 7.65937 121.311 7.60755C121.311 7.55573 121.175 7.48319 121.008 7.44174C120.84 7.41065 120.672 7.30701 120.641 7.22411C120.61 7.1412 120.442 7.07902 120.264 7.07902C120.054 7.07902 119.949 7.02721 119.949 6.92357C119.949 6.79922 119.782 6.76813 119.111 6.76813C118.472 6.76813 118.273 6.73704 118.273 6.62304C118.273 6.52977 118.085 6.46759 117.728 6.41578C117.121 6.3536 103.7 6.3536 103.323 6.42614ZM118.504 8.0739C119.174 8.13608 119.206 8.1568 119.268 8.43661C119.31 8.60242 119.405 8.73714 119.488 8.73714C119.572 8.73714 119.635 8.79932 119.635 8.88223C119.635 8.95477 119.771 9.04804 119.949 9.07913C120.18 9.13095 120.274 9.22422 120.327 9.43148C120.369 9.58693 120.452 9.75274 120.515 9.7942C120.683 9.90819 120.672 18.976 120.505 19.0797C120.442 19.1211 120.358 19.2766 120.316 19.432C120.274 19.5875 120.18 19.7326 120.096 19.7636C120.012 19.7947 119.949 19.888 119.949 19.9813C119.949 20.0642 119.876 20.1367 119.792 20.1367C119.708 20.1367 119.635 20.2093 119.635 20.2922C119.635 20.3751 119.562 20.4476 119.478 20.4476C119.394 20.4476 119.321 20.5098 119.321 20.5927C119.321 20.686 119.111 20.7585 118.64 20.8103C118.263 20.8414 117.959 20.9243 117.959 20.9761C117.959 21.028 115.434 21.0694 111.673 21.0694C107.912 21.0694 105.387 21.028 105.387 20.9761C105.387 20.9243 105.251 20.8518 105.072 20.8103L104.758 20.7378V14.4369V8.12571L105.104 8.08426C105.67 8.01172 117.76 8.01172 118.504 8.0739Z" fill="black"/>
<path d="M132.579 10.4611C132.548 10.5328 132.242 10.6045 131.778 10.6249C131.356 10.6454 131.019 10.7069 131.019 10.758C131.019 10.799 130.787 10.8707 130.491 10.9116C130.154 10.9526 129.964 11.0243 129.964 11.1164C129.964 11.2086 129.838 11.2598 129.595 11.2598C129.342 11.2598 129.226 11.311 129.226 11.4134C129.226 11.5157 129.121 11.5669 128.91 11.5669C128.699 11.5669 128.593 11.6181 128.593 11.7205C128.593 11.8024 128.52 11.8741 128.435 11.8741C128.351 11.8741 128.277 11.9663 128.277 12.0789C128.277 12.1915 128.214 12.2837 128.13 12.2837C128.045 12.2837 127.971 12.4475 127.929 12.7035C127.898 12.939 127.813 13.1745 127.729 13.2154C127.623 13.2871 127.592 13.9834 127.592 16.6865C127.592 19.3896 127.623 20.0859 127.729 20.1575C127.813 20.1985 127.898 20.434 127.929 20.6592C127.982 21.0176 128.035 21.0893 128.288 21.1405C128.456 21.1814 128.593 21.2736 128.593 21.3555C128.593 21.4374 128.667 21.4988 128.752 21.4988C128.836 21.4988 128.91 21.5705 128.91 21.6524C128.91 21.7548 129.026 21.806 129.279 21.806C129.521 21.806 129.648 21.8572 129.648 21.9494C129.648 22.0313 129.817 22.1132 130.091 22.1439C130.344 22.1746 130.555 22.2565 130.576 22.3077C130.597 22.3692 130.85 22.4204 131.135 22.4204C131.525 22.4204 131.651 22.4613 131.651 22.574C131.651 22.7071 132.189 22.7275 135.869 22.7275C139.549 22.7275 140.087 22.7071 140.087 22.574C140.087 22.4613 140.213 22.4204 140.603 22.4204C140.888 22.4204 141.141 22.3692 141.162 22.3077C141.183 22.2463 141.426 22.1746 141.7 22.1439C142.027 22.103 142.195 22.0415 142.195 21.9494C142.195 21.8572 142.311 21.806 142.512 21.806C142.723 21.806 142.828 21.7548 142.828 21.6524C142.828 21.5705 142.891 21.4988 142.965 21.4988C143.039 21.4988 143.176 21.4067 143.281 21.2941C143.376 21.1814 143.524 21.0893 143.608 21.0893C143.756 21.0893 143.882 20.7924 143.882 20.393C143.882 20.2599 143.946 20.1678 144.041 20.1678C144.178 20.1678 144.199 19.6968 144.199 16.5329C144.199 13.369 144.178 12.898 144.041 12.898C143.935 12.898 143.882 12.7956 143.882 12.5908C143.882 12.3758 143.83 12.2837 143.714 12.2837C143.619 12.2837 143.524 12.1915 143.492 12.0789C143.461 11.9663 143.366 11.8741 143.292 11.8741C143.208 11.8741 143.144 11.8024 143.144 11.7205C143.144 11.6386 143.071 11.5669 142.986 11.5669C142.902 11.5669 142.828 11.4953 142.828 11.4134C142.828 11.311 142.723 11.2598 142.512 11.2598C142.343 11.2598 142.164 11.1983 142.122 11.1164C142.079 11.0447 141.784 10.9628 141.468 10.9321C141.162 10.9014 140.877 10.8297 140.835 10.7785C140.804 10.7171 140.487 10.6557 140.15 10.6249C139.802 10.5942 139.496 10.5225 139.475 10.4611C139.422 10.2871 132.632 10.2871 132.579 10.4611ZM140.508 12.0175C140.508 12.0994 140.677 12.1813 140.951 12.212C141.204 12.2427 141.415 12.3246 141.436 12.3758C141.457 12.4373 141.542 12.4885 141.615 12.4885C141.7 12.4885 141.795 12.642 141.837 12.8468C141.868 13.0516 141.963 13.2052 142.048 13.2052C142.174 13.2052 142.195 13.7581 142.195 16.5329C142.195 19.3384 142.174 19.8606 142.048 19.8606C141.963 19.8606 141.868 19.9937 141.826 20.1678C141.784 20.3316 141.689 20.4749 141.605 20.4749C141.521 20.4749 141.457 20.5364 141.457 20.6183C141.457 20.7719 141.141 20.8845 140.698 20.8845C140.55 20.8845 140.403 20.9459 140.371 21.0074C140.319 21.1814 131.472 21.2019 131.356 21.0279C131.314 20.9664 131.061 20.8845 130.787 20.8435C130.449 20.7924 130.281 20.7207 130.281 20.6183C130.281 20.5364 130.207 20.4749 130.122 20.4749C130.038 20.4749 129.964 20.4033 129.964 20.3214C129.964 20.2394 129.901 20.1678 129.817 20.1678C129.743 20.1678 129.648 20.0654 129.606 19.9323C129.574 19.8094 129.542 18.2428 129.542 16.451C129.542 13.7171 129.564 13.2052 129.69 13.2052C129.774 13.2052 129.869 13.0721 129.911 12.9083C129.964 12.683 130.059 12.5908 130.291 12.5396C130.46 12.4987 130.597 12.4065 130.597 12.3246C130.597 12.2325 130.713 12.1813 130.966 12.1813C131.219 12.1813 131.335 12.1301 131.335 12.0277C131.335 11.8946 131.915 11.8741 135.922 11.8741C139.728 11.8741 140.508 11.8946 140.508 12.0175Z" fill="black"/>
</svg>
