<svg width="184" height="31" viewBox="0 0 184 31" fill="none" xmlns="http://www.w3.org/2000/svg">
<path d="M42.5496 15.3978H43.6832C44.7427 15.3978 45.5355 15.1904 46.0615 14.7755C46.5876 14.3531 46.8506 13.7419 46.8506 12.9417C46.8506 12.134 46.6284 11.5376 46.1838 11.1523C45.7467 10.767 45.0576 10.5744 44.1166 10.5744H42.5496V15.3978ZM50.3293 12.8194C50.3293 14.568 49.781 15.9054 48.6844 16.8315C47.5953 17.7577 46.043 18.2208 44.0277 18.2208H42.5496V24H39.1042V7.75146H44.2944C46.2653 7.75146 47.762 8.1775 48.7845 9.02956C49.8143 9.87422 50.3293 11.1375 50.3293 12.8194ZM58.1335 13.753C57.4148 13.753 56.8517 13.9827 56.4442 14.442C56.0367 14.894 55.8033 15.5386 55.744 16.3759H60.5007C60.4859 15.5386 60.2673 14.894 59.845 14.442C59.4227 13.9827 58.8522 13.753 58.1335 13.753ZM58.6114 24.2223C56.6109 24.2223 55.0475 23.6703 53.9213 22.5663C52.7951 21.4623 52.232 19.899 52.232 17.8762C52.232 15.7942 52.7506 14.1864 53.7879 13.0528C54.8326 11.9118 56.2738 11.3413 58.1113 11.3413C59.8672 11.3413 61.2343 11.8414 62.2123 12.8416C63.1903 13.8419 63.6793 15.2237 63.6793 16.9871V18.632H55.6662C55.7032 19.5952 55.9885 20.3472 56.522 20.8881C57.0554 21.429 57.8038 21.6994 58.767 21.6994C59.5153 21.6994 60.2229 21.6216 60.8897 21.466C61.5566 21.3104 62.253 21.0622 62.9791 20.7214V23.3443C62.3864 23.6407 61.7529 23.8592 61.0787 24C60.4044 24.1482 59.582 24.2223 58.6114 24.2223ZM68.994 17.7651C68.994 18.995 69.194 19.9249 69.5941 20.5547C70.0017 21.1845 70.6611 21.4994 71.5724 21.4994C72.4764 21.4994 73.1247 21.1882 73.5174 20.5658C73.9175 19.936 74.1175 19.0024 74.1175 17.7651C74.1175 16.5352 73.9175 15.6127 73.5174 14.9977C73.1173 14.3828 72.4615 14.0753 71.5502 14.0753C70.6463 14.0753 69.9942 14.3828 69.5941 14.9977C69.194 15.6053 68.994 16.5277 68.994 17.7651ZM77.585 17.7651C77.585 19.7878 77.0516 21.3697 75.9846 22.5107C74.9177 23.6518 73.4321 24.2223 71.528 24.2223C70.3351 24.2223 69.283 23.963 68.3716 23.4443C67.4603 22.9182 66.7601 22.1662 66.2711 21.1882C65.7821 20.2102 65.5376 19.0691 65.5376 17.7651C65.5376 15.735 66.0673 14.1568 67.1269 13.0306C68.1864 11.9044 69.6756 11.3413 71.5946 11.3413C72.7875 11.3413 73.8397 11.6006 74.751 12.1192C75.6623 12.6379 76.3625 13.3825 76.8515 14.3531C77.3405 15.3237 77.585 16.4611 77.585 17.7651ZM87.0674 24.2223C85.6078 24.2223 84.4631 23.6925 83.6332 22.633H83.4554C83.574 23.6703 83.6332 24.2704 83.6332 24.4334V29.468H80.2435V11.5746H82.9997L83.4776 13.1862H83.6332C84.426 11.9562 85.6004 11.3413 87.1563 11.3413C88.6234 11.3413 89.7718 11.9081 90.6017 13.0417C91.4315 14.1753 91.8464 15.7498 91.8464 17.7651C91.8464 19.0914 91.6501 20.2435 91.2574 21.2215C90.8721 22.1995 90.3201 22.9442 89.6014 23.4554C88.8827 23.9667 88.038 24.2223 87.0674 24.2223ZM86.0672 14.053C85.2299 14.053 84.6187 14.3124 84.2334 14.831C83.8481 15.3423 83.6481 16.1906 83.6332 17.3761V17.7429C83.6332 19.0765 83.8296 20.0323 84.2223 20.6103C84.6224 21.1882 85.2522 21.4771 86.1116 21.4771C87.6305 21.4771 88.39 20.225 88.39 17.7206C88.39 16.4981 88.2011 15.5831 87.8232 14.9755C87.4527 14.3605 86.8674 14.053 86.0672 14.053ZM99.6506 13.753C98.9319 13.753 98.3688 13.9827 97.9613 14.442C97.5538 14.894 97.3204 15.5386 97.2611 16.3759H102.018C102.003 15.5386 101.784 14.894 101.362 14.442C100.94 13.9827 100.369 13.753 99.6506 13.753ZM100.128 24.2223C98.128 24.2223 96.5646 23.6703 95.4384 22.5663C94.3122 21.4623 93.7491 19.899 93.7491 17.8762C93.7491 15.7942 94.2678 14.1864 95.3051 13.0528C96.3498 11.9118 97.7909 11.3413 99.6284 11.3413C101.384 11.3413 102.751 11.8414 103.729 12.8416C104.707 13.8419 105.196 15.2237 105.196 16.9871V18.632H97.1833C97.2204 19.5952 97.5056 20.3472 98.0391 20.8881C98.5726 21.429 99.3209 21.6994 100.284 21.6994C101.032 21.6994 101.74 21.6216 102.407 21.466C103.074 21.3104 103.77 21.0622 104.496 20.7214V23.3443C103.904 23.6407 103.27 23.8592 102.596 24C101.922 24.1482 101.099 24.2223 100.128 24.2223ZM111.2 24H107.81V6.70675H111.2V24ZM118.338 15.3978H119.471C120.531 15.3978 121.323 15.1904 121.85 14.7755C122.376 14.3531 122.639 13.7419 122.639 12.9417C122.639 12.134 122.416 11.5376 121.972 11.1523C121.535 10.767 120.846 10.5744 119.905 10.5744H118.338V15.3978ZM126.117 12.8194C126.117 14.568 125.569 15.9054 124.472 16.8315C123.383 17.7577 121.831 18.2208 119.816 18.2208H118.338V24H114.892V7.75146H120.082C122.053 7.75146 123.55 8.1775 124.572 9.02956C125.602 9.87422 126.117 11.1375 126.117 12.8194ZM131.476 17.7651C131.476 18.995 131.676 19.9249 132.077 20.5547C132.484 21.1845 133.143 21.4994 134.055 21.4994C134.959 21.4994 135.607 21.1882 136 20.5658C136.4 19.936 136.6 19.0024 136.6 17.7651C136.6 16.5352 136.4 15.6127 136 14.9977C135.6 14.3828 134.944 14.0753 134.033 14.0753C133.129 14.0753 132.477 14.3828 132.077 14.9977C131.676 15.6053 131.476 16.5277 131.476 17.7651ZM140.067 17.7651C140.067 19.7878 139.534 21.3697 138.467 22.5107C137.4 23.6518 135.915 24.2223 134.01 24.2223C132.817 24.2223 131.765 23.963 130.854 23.4443C129.943 22.9182 129.242 22.1662 128.753 21.1882C128.264 20.2102 128.02 19.0691 128.02 17.7651C128.02 15.735 128.55 14.1568 129.609 13.0306C130.669 11.9044 132.158 11.3413 134.077 11.3413C135.27 11.3413 136.322 11.6006 137.233 12.1192C138.145 12.6379 138.845 13.3825 139.334 14.3531C139.823 15.3237 140.067 16.4611 140.067 17.7651ZM152.94 24L151.984 19.6545L150.695 14.1642H150.617L148.35 24H144.704L141.17 11.5746H144.549L145.982 17.076C146.212 18.0615 146.445 19.4211 146.682 21.1548H146.749C146.779 20.5917 146.908 19.6989 147.138 18.4764L147.316 17.5317L148.85 11.5746H152.584L154.04 17.5317C154.069 17.6947 154.114 17.9355 154.173 18.2541C154.24 18.5727 154.303 18.9135 154.362 19.2766C154.421 19.6322 154.473 19.9842 154.518 20.3324C154.57 20.6732 154.599 20.9474 154.607 21.1548H154.673C154.74 20.6214 154.859 19.8916 155.029 18.9654C155.199 18.0318 155.322 17.402 155.396 17.076L156.885 11.5746H160.208L156.629 24H152.94ZM167.223 13.753C166.504 13.753 165.941 13.9827 165.534 14.442C165.126 14.894 164.893 15.5386 164.834 16.3759H169.59C169.576 15.5386 169.357 14.894 168.935 14.442C168.512 13.9827 167.942 13.753 167.223 13.753ZM167.701 24.2223C165.701 24.2223 164.137 23.6703 163.011 22.5663C161.885 21.4623 161.322 19.899 161.322 17.8762C161.322 15.7942 161.84 14.1864 162.878 13.0528C163.922 11.9118 165.363 11.3413 167.201 11.3413C168.957 11.3413 170.324 11.8414 171.302 12.8416C172.28 13.8419 172.769 15.2237 172.769 16.9871V18.632H164.756C164.793 19.5952 165.078 20.3472 165.612 20.8881C166.145 21.429 166.893 21.6994 167.857 21.6994C168.605 21.6994 169.313 21.6216 169.979 21.466C170.646 21.3104 171.343 21.0622 172.069 20.7214V23.3443C171.476 23.6407 170.843 23.8592 170.168 24C169.494 24.1482 168.672 24.2223 167.701 24.2223ZM182.318 11.3413C182.777 11.3413 183.159 11.3746 183.463 11.4413L183.207 14.6199C182.933 14.5458 182.6 14.5087 182.207 14.5087C181.125 14.5087 180.281 14.7866 179.673 15.3423C179.073 15.898 178.773 16.6759 178.773 17.6762V24H175.383V11.5746H177.95L178.45 13.6641H178.617C179.002 12.9676 179.521 12.4082 180.173 11.9859C180.833 11.5561 181.548 11.3413 182.318 11.3413Z" fill="#5CDD9E"/>
<path d="M17.3544 12.5425C17.7022 12.102 17.934 11.5456 17.934 10.9428C17.934 9.55178 16.8212 8.43896 15.4302 8.43896C15.1056 8.43896 14.8042 8.50852 14.5028 8.62443C14.4797 9.43586 14.1783 10.1777 13.6914 10.7805C15.3143 11.7311 16.4271 13.493 16.4271 15.5332C16.4271 15.9273 16.3807 16.3214 16.3112 16.6924H19.2091C19.2555 16.4373 19.3019 16.1591 19.3019 15.8809C19.2787 14.4435 18.5136 13.1916 17.3544 12.5425Z" fill="#5CDD9E"/>
<path d="M13.0205 10.7571C13.5073 10.1775 13.8087 9.41243 13.8319 8.601C13.8319 8.55463 13.8319 8.50826 13.8319 8.48508C13.8319 6.51446 12.2322 4.8916 10.2384 4.8916C8.26781 4.8916 6.64495 6.49128 6.64495 8.48508C6.64495 8.53145 6.64495 8.57781 6.64495 8.601C6.66814 9.41243 6.96952 10.1543 7.45638 10.7571C5.83352 11.7076 4.7207 13.4696 4.7207 15.5097C4.7207 15.9039 4.76707 16.298 4.83662 16.6689H9.47337H10.9571H15.5939C15.6634 16.298 15.7098 15.9039 15.7098 15.5097C15.733 13.4696 14.6433 11.7076 13.0205 10.7571Z" fill="#5CDD9E"/>
<path d="M20.0431 18.1531C20.0431 18.7559 19.5563 19.2427 18.9535 19.2427H1.51932C0.916546 19.2427 0.429688 18.7559 0.429688 18.1531C0.429688 17.5503 0.916546 17.0635 1.51932 17.0635H18.9535C19.5563 17.0635 20.0431 17.5503 20.0431 18.1531Z" fill="#5CDD9E"/>
<path d="M18.6766 20.5638C18.6766 21.1665 18.1897 21.6534 17.5869 21.6534H2.88846C2.28569 21.6534 1.79883 21.1665 1.79883 20.5638C1.79883 19.961 2.28569 19.4741 2.88846 19.4741H17.6101C18.1897 19.4741 18.6766 19.961 18.6766 20.5638Z" fill="#5CDD9E"/>
<g filter="url(#filter0_d_462_200)">
<path d="M20.6946 13.8408C20.3468 13.8408 20.0918 13.5626 20.0918 13.238C20.0918 12.8903 20.37 12.6353 20.6946 12.6353H22.8738C23.2216 12.6353 23.4766 12.9135 23.4766 13.238C23.4766 13.5858 23.1984 13.8408 22.8738 13.8408H20.6946Z" fill="#5CDD9E"/>
</g>
<defs>
<filter id="filter0_d_462_200" x="16.0918" y="12.6353" width="11.3848" height="9.20557" filterUnits="userSpaceOnUse" color-interpolation-filters="sRGB">
<feFlood flood-opacity="0" result="BackgroundImageFix"/>
<feColorMatrix in="SourceAlpha" type="matrix" values="0 0 0 0 0 0 0 0 0 0 0 0 0 0 0 0 0 0 127 0" result="hardAlpha"/>
<feOffset dy="4"/>
<feGaussianBlur stdDeviation="2"/>
<feColorMatrix type="matrix" values="0 0 0 0 1 0 0 0 0 1 0 0 0 0 1 0 0 0 1 0"/>
<feBlend mode="normal" in2="BackgroundImageFix" result="effect1_dropShadow_462_200"/>
<feBlend mode="normal" in="SourceGraphic" in2="effect1_dropShadow_462_200" result="shape"/>
</filter>
</defs>
</svg>
