<svg width="65" height="20" viewBox="0 0 65 20" fill="none" xmlns="http://www.w3.org/2000/svg">
<path d="M4.3258 8.42635C3.10958 8.42635 2.15292 8.06308 1.45581 7.33654C0.758708 6.61001 0.410156 5.56888 0.410156 4.21318C0.410156 2.87994 0.747584 1.84631 1.42244 1.11228C2.0973 0.370759 3.03913 0 4.24794 0C4.82638 0 5.33067 0.0411954 5.7608 0.123586C5.93878 0.153547 6.0834 0.243428 6.19464 0.393229C6.30588 0.543031 6.3615 0.711558 6.3615 0.898811V1.25834C6.3615 1.41563 6.29846 1.53921 6.17239 1.62909C6.04632 1.71898 5.90912 1.74519 5.7608 1.70774C5.33809 1.59539 4.90796 1.53921 4.47042 1.53921C3.80298 1.53921 3.28015 1.76766 2.90193 2.22456C2.53113 2.68145 2.34573 3.34433 2.34573 4.21318C2.34573 5.06705 2.54596 5.72992 2.94643 6.20179C3.34689 6.67367 3.88084 6.90961 4.54828 6.90961C4.99324 6.90961 5.42708 6.85343 5.84979 6.74108C5.99811 6.70363 6.13531 6.72985 6.26138 6.81973C6.39487 6.90961 6.46161 7.0332 6.46161 7.19049V7.52754C6.46161 7.71479 6.40228 7.88332 6.28363 8.03312C6.17239 8.18292 6.02778 8.27281 5.84979 8.30277C5.41225 8.38516 4.90425 8.42635 4.3258 8.42635Z" fill="#465475"/>
<path d="M11.2169 1.77515L10.4049 4.99964C10.3975 5.02211 10.4012 5.04458 10.416 5.06705C10.4383 5.08203 10.4605 5.08952 10.4828 5.08952H11.9734C11.9956 5.08952 12.0142 5.08203 12.029 5.06705C12.0512 5.04458 12.0587 5.02211 12.0512 4.99964L11.2392 1.77515C11.2392 1.76766 11.2355 1.76392 11.2281 1.76392C11.2207 1.76392 11.2169 1.76766 11.2169 1.77515ZM8.24684 8.314C8.0911 8.314 7.96503 8.25033 7.86862 8.123C7.77963 7.99567 7.76109 7.85711 7.813 7.7073L10.0601 0.719048C10.1194 0.539286 10.2232 0.393229 10.3715 0.280878C10.5273 0.168527 10.6978 0.112351 10.8832 0.112351H11.6174C11.8102 0.112351 11.9845 0.168527 12.1402 0.280878C12.296 0.393229 12.3998 0.539286 12.4517 0.719048L14.6876 7.7073C14.7395 7.85711 14.7173 7.99567 14.6209 8.123C14.5319 8.25033 14.4095 8.314 14.2538 8.314H13.5085C13.3231 8.314 13.1562 8.25782 13.0079 8.14547C12.8596 8.02563 12.7632 7.87583 12.7187 7.69607L12.4517 6.62873C12.4443 6.56881 12.4072 6.53885 12.3405 6.53885H10.1157C10.0563 6.53885 10.0193 6.56881 10.0044 6.62873L9.73746 7.69607C9.69296 7.87583 9.59655 8.02563 9.44823 8.14547C9.29991 8.25782 9.13305 8.314 8.94765 8.314H8.24684Z" fill="#465475"/>
<path d="M16.5683 8.314C16.3977 8.314 16.2494 8.25033 16.1233 8.123C15.9973 7.99567 15.9342 7.84587 15.9342 7.6736V0.752754C15.9342 0.580482 15.9973 0.43068 16.1233 0.303348C16.2494 0.176017 16.3977 0.112351 16.5683 0.112351H17.258C17.4285 0.112351 17.5732 0.176017 17.6918 0.303348C17.8179 0.43068 17.8809 0.580482 17.8809 0.752754V6.63997C17.8809 6.69989 17.9143 6.72985 17.981 6.72985H20.6842C20.8547 6.72985 21.0031 6.79351 21.1291 6.92084C21.2552 7.04818 21.3182 7.19798 21.3182 7.37025V7.6736C21.3182 7.84587 21.2552 7.99567 21.1291 8.123C21.0031 8.25033 20.8547 8.314 20.6842 8.314H16.5683Z" fill="#465475"/>
<path d="M23.5801 8.314C23.4095 8.314 23.2612 8.25033 23.1351 8.123C23.0164 7.99567 22.9571 7.84587 22.9571 7.6736V0.752754C22.9571 0.580482 23.0164 0.43068 23.1351 0.303348C23.2612 0.176017 23.4095 0.112351 23.5801 0.112351H27.518C27.6885 0.112351 27.8331 0.176017 27.9518 0.303348C28.0779 0.43068 28.1409 0.580482 28.1409 0.752754V1.01116C28.1409 1.18343 28.0779 1.33324 27.9518 1.46057C27.8331 1.5879 27.6885 1.65156 27.518 1.65156H24.9372C24.8779 1.65156 24.8482 1.68152 24.8482 1.74145V3.22448C24.8482 3.29189 24.8779 3.3256 24.9372 3.3256H27.2955C27.466 3.3256 27.6107 3.38927 27.7293 3.5166C27.8554 3.64393 27.9184 3.79373 27.9184 3.966V4.13453C27.9184 4.3068 27.8554 4.4566 27.7293 4.58394C27.6107 4.71127 27.466 4.77493 27.2955 4.77493H24.9372C24.8779 4.77493 24.8482 4.80489 24.8482 4.86481V6.68491C24.8482 6.74483 24.8779 6.77479 24.9372 6.77479H27.518C27.6885 6.77479 27.8331 6.83845 27.9518 6.96578C28.0779 7.09312 28.1409 7.24292 28.1409 7.41519V7.6736C28.1409 7.84587 28.0779 7.99567 27.9518 8.123C27.8331 8.25033 27.6885 8.314 27.518 8.314H23.5801Z" fill="#465475"/>
<path d="M31.5741 7.7073L29.3271 0.719048C29.2752 0.569246 29.2937 0.43068 29.3827 0.303348C29.4791 0.176017 29.6052 0.112351 29.7609 0.112351H30.5062C30.6916 0.112351 30.8585 0.172272 31.0068 0.292113C31.1551 0.404464 31.2515 0.550521 31.296 0.730284L32.7533 6.47144C32.7533 6.47893 32.757 6.48267 32.7644 6.48267C32.7718 6.48267 32.7755 6.47893 32.7755 6.47144L34.2773 0.730284C34.3218 0.550521 34.4182 0.404464 34.5665 0.292113C34.7148 0.172272 34.8817 0.112351 35.0671 0.112351H35.7679C35.9236 0.112351 36.046 0.176017 36.135 0.303348C36.2314 0.43068 36.2536 0.569246 36.2017 0.719048L33.9547 7.7073C33.9028 7.88707 33.7989 8.03312 33.6432 8.14547C33.4949 8.25782 33.3243 8.314 33.1315 8.314H32.3973C32.2119 8.314 32.0413 8.25782 31.8856 8.14547C31.7373 8.03312 31.6335 7.88707 31.5741 7.7073Z" fill="#465475"/>
<path d="M39.2325 1.77515L38.4204 4.99964C38.413 5.02211 38.4167 5.04458 38.4316 5.06705C38.4538 5.08203 38.4761 5.08952 38.4983 5.08952H39.9889C40.0112 5.08952 40.0297 5.08203 40.0445 5.06705C40.0668 5.04458 40.0742 5.02211 40.0668 4.99964L39.2547 1.77515C39.2547 1.76766 39.251 1.76392 39.2436 1.76392C39.2362 1.76392 39.2325 1.76766 39.2325 1.77515ZM36.2624 8.314C36.1066 8.314 35.9806 8.25033 35.8842 8.123C35.7952 7.99567 35.7766 7.85711 35.8285 7.7073L38.0756 0.719048C38.1349 0.539286 38.2387 0.393229 38.3871 0.280878C38.5428 0.168527 38.7134 0.112351 38.8988 0.112351H39.6329C39.8258 0.112351 40 0.168527 40.1558 0.280878C40.3115 0.393229 40.4153 0.539286 40.4672 0.719048L42.7032 7.7073C42.7551 7.85711 42.7328 7.99567 42.6364 8.123C42.5474 8.25033 42.4251 8.314 42.2693 8.314H41.524C41.3386 8.314 41.1718 8.25782 41.0234 8.14547C40.8751 8.02563 40.7787 7.87583 40.7342 7.69607L40.4672 6.62873C40.4598 6.56881 40.4227 6.53885 40.356 6.53885H38.1312C38.0719 6.53885 38.0348 6.56881 38.02 6.62873L37.753 7.69607C37.7085 7.87583 37.6121 8.02563 37.4638 8.14547C37.3154 8.25782 37.1486 8.314 36.9632 8.314H36.2624Z" fill="#465475"/>
<path d="M44.5838 8.314C44.4132 8.314 44.2649 8.25033 44.1389 8.123C44.0128 7.99567 43.9497 7.84587 43.9497 7.6736V0.752754C43.9497 0.580482 44.0128 0.43068 44.1389 0.303348C44.2649 0.176017 44.4132 0.112351 44.5838 0.112351H45.2735C45.4441 0.112351 45.5887 0.176017 45.7073 0.303348C45.8334 0.43068 45.8965 0.580482 45.8965 0.752754V6.63997C45.8965 6.69989 45.9298 6.72985 45.9966 6.72985H48.6997C48.8703 6.72985 49.0186 6.79351 49.1447 6.92084C49.2707 7.04818 49.3338 7.19798 49.3338 7.37025V7.6736C49.3338 7.84587 49.2707 7.99567 49.1447 8.123C49.0186 8.25033 48.8703 8.314 48.6997 8.314H44.5838Z" fill="#465475"/>
<path d="M53.9735 1.77515L53.1615 4.99964C53.154 5.02211 53.1578 5.04458 53.1726 5.06705C53.1948 5.08203 53.2171 5.08952 53.2393 5.08952H54.7299C54.7522 5.08952 54.7707 5.08203 54.7856 5.06705C54.8078 5.04458 54.8152 5.02211 54.8078 4.99964L53.9958 1.77515C53.9958 1.76766 53.9921 1.76392 53.9846 1.76392C53.9772 1.76392 53.9735 1.76766 53.9735 1.77515ZM51.0034 8.314C50.8477 8.314 50.7216 8.25033 50.6252 8.123C50.5362 7.99567 50.5177 7.85711 50.5696 7.7073L52.8166 0.719048C52.8759 0.539286 52.9798 0.393229 53.1281 0.280878C53.2838 0.168527 53.4544 0.112351 53.6398 0.112351H54.374C54.5668 0.112351 54.7411 0.168527 54.8968 0.280878C55.0525 0.393229 55.1564 0.539286 55.2083 0.719048L57.4442 7.7073C57.4961 7.85711 57.4739 7.99567 57.3775 8.123C57.2885 8.25033 57.1661 8.314 57.0104 8.314H56.2651C56.0797 8.314 55.9128 8.25782 55.7645 8.14547C55.6162 8.02563 55.5198 7.87583 55.4753 7.69607L55.2083 6.62873C55.2009 6.56881 55.1638 6.53885 55.097 6.53885H52.8722C52.8129 6.53885 52.7758 6.56881 52.761 6.62873L52.494 7.69607C52.4495 7.87583 52.3531 8.02563 52.2048 8.14547C52.0565 8.25782 51.8896 8.314 51.7042 8.314H51.0034Z" fill="#465475"/>
<path d="M60.5485 4.83111V6.80849C60.5485 6.8759 60.5819 6.9171 60.6486 6.93208C60.8043 6.96204 60.9935 6.97702 61.2159 6.97702C61.7425 6.97702 62.1281 6.87965 62.3728 6.68491C62.6176 6.48267 62.7399 6.17558 62.7399 5.76363C62.7399 5.07454 62.1837 4.72999 61.0713 4.72999H60.6375C60.5782 4.72999 60.5485 4.7637 60.5485 4.83111ZM60.5485 1.61786V3.26942C60.5485 3.32935 60.5782 3.35931 60.6375 3.35931H60.9156C61.9983 3.35931 62.5397 3.03349 62.5397 2.38185C62.5397 1.76017 62.0873 1.44933 61.1826 1.44933C60.9675 1.44933 60.7858 1.46431 60.6375 1.49427C60.5782 1.50925 60.5485 1.55045 60.5485 1.61786ZM59.3137 8.33647C59.1357 8.32149 58.9874 8.24285 58.8688 8.10053C58.7501 7.95822 58.6908 7.79718 58.6908 7.61742V0.808929C58.6908 0.621677 58.7501 0.46064 58.8688 0.325819C58.9948 0.183507 59.1469 0.104861 59.3249 0.0898806C59.9033 0.0299602 60.4706 0 61.0268 0C63.1775 0 64.2528 0.700323 64.2528 2.10097C64.2528 2.57285 64.1008 2.97357 63.7967 3.30313C63.5001 3.63269 63.0996 3.84242 62.5953 3.9323C62.5879 3.9323 62.5842 3.93979 62.5842 3.95477C62.5842 3.96226 62.5916 3.966 62.6064 3.966C63.1923 4.04839 63.6558 4.2731 63.9969 4.64011C64.3455 5.00713 64.5198 5.4453 64.5198 5.95462C64.5198 6.78602 64.2454 7.4077 63.6966 7.81965C63.1552 8.22412 62.3024 8.42635 61.1381 8.42635C60.5522 8.42635 59.9441 8.39639 59.3137 8.33647Z" fill="#465475"/>
<path d="M10.9399 12.7762L10.1279 16.0007C10.1205 16.0232 10.1242 16.0456 10.139 16.0681C10.1613 16.0831 10.1835 16.0906 10.2058 16.0906H11.6964C11.7186 16.0906 11.7372 16.0831 11.752 16.0681C11.7742 16.0456 11.7817 16.0232 11.7742 16.0007L10.9622 12.7762C10.9622 12.7687 10.9585 12.765 10.9511 12.765C10.9436 12.765 10.9399 12.7687 10.9399 12.7762ZM7.96983 19.3151C7.81409 19.3151 7.68802 19.2514 7.59161 19.1241C7.50262 18.9967 7.48408 18.8582 7.53599 18.7084L9.78304 11.7201C9.84237 11.5404 9.94619 11.3943 10.0945 11.2819C10.2502 11.1696 10.4208 11.1134 10.6062 11.1134H11.3404C11.5332 11.1134 11.7075 11.1696 11.8632 11.2819C12.019 11.3943 12.1228 11.5404 12.1747 11.7201L14.4106 18.7084C14.4625 18.8582 14.4403 18.9967 14.3439 19.1241C14.2549 19.2514 14.1325 19.3151 13.9768 19.3151H13.2315C13.0461 19.3151 12.8792 19.2589 12.7309 19.1465C12.5826 19.0267 12.4862 18.8769 12.4417 18.6971L12.1747 17.6298C12.1673 17.5699 12.1302 17.5399 12.0635 17.5399H9.83866C9.77933 17.5399 9.74225 17.5699 9.72742 17.6298L9.46044 18.6971C9.41595 18.8769 9.31954 19.0267 9.17122 19.1465C9.0229 19.2589 8.85604 19.3151 8.67064 19.3151H7.96983Z" fill="#465475"/>
<path d="M14.7856 12.6976C14.6151 12.6976 14.4667 12.6339 14.3407 12.5066C14.2146 12.3792 14.1516 12.2294 14.1516 12.0572V11.7538C14.1516 11.5816 14.2146 11.4318 14.3407 11.3044C14.4667 11.1771 14.6151 11.1134 14.7856 11.1134H19.7469C19.9175 11.1134 20.0658 11.1771 20.1919 11.3044C20.318 11.4318 20.381 11.5816 20.381 11.7538V12.0572C20.381 12.2294 20.318 12.3792 20.1919 12.5066C20.0658 12.6339 19.9175 12.6976 19.7469 12.6976H18.3231C18.2637 12.6976 18.2341 12.7275 18.2341 12.7875V18.6747C18.2341 18.8469 18.171 18.9967 18.045 19.1241C17.9189 19.2514 17.7706 19.3151 17.6 19.3151H16.9326C16.762 19.3151 16.6137 19.2514 16.4876 19.1241C16.3615 18.9967 16.2985 18.8469 16.2985 18.6747V12.7875C16.2985 12.7275 16.2688 12.6976 16.2095 12.6976H14.7856Z" fill="#465475"/>
<path d="M22.6515 19.3151C22.4809 19.3151 22.3326 19.2514 22.2065 19.1241C22.0805 18.9967 22.0174 18.8469 22.0174 18.6747V11.7538C22.0174 11.5816 22.0805 11.4318 22.2065 11.3044C22.3326 11.1771 22.4809 11.1134 22.6515 11.1134H23.2856C23.4561 11.1134 23.6008 11.1771 23.7194 11.3044C23.8455 11.4318 23.9085 11.5816 23.9085 11.7538V14.2256C23.9085 14.293 23.9419 14.3267 24.0086 14.3267H26.3002C26.3669 14.3267 26.4003 14.293 26.4003 14.2256V11.7538C26.4003 11.5816 26.4596 11.4318 26.5783 11.3044C26.7044 11.1771 26.8527 11.1134 27.0232 11.1134H27.6573C27.8279 11.1134 27.9762 11.1771 28.1023 11.3044C28.2283 11.4318 28.2914 11.5816 28.2914 11.7538V18.6747C28.2914 18.8469 28.2283 18.9967 28.1023 19.1241C27.9762 19.2514 27.8279 19.3151 27.6573 19.3151H27.0232C26.8527 19.3151 26.7044 19.2514 26.5783 19.1241C26.4596 18.9967 26.4003 18.8469 26.4003 18.6747V15.8659C26.4003 15.806 26.3669 15.776 26.3002 15.776H24.0086C23.9419 15.776 23.9085 15.806 23.9085 15.8659V18.6747C23.9085 18.8469 23.8455 18.9967 23.7194 19.1241C23.6008 19.2514 23.4561 19.3151 23.2856 19.3151H22.6515Z" fill="#465475"/>
<path d="M30.8368 19.3151C30.6662 19.3151 30.5179 19.2514 30.3918 19.1241C30.2657 18.9967 30.2027 18.8469 30.2027 18.6747V11.7538C30.2027 11.5816 30.2657 11.4318 30.3918 11.3044C30.5179 11.1771 30.6662 11.1134 30.8368 11.1134H31.5265C31.697 11.1134 31.8416 11.1771 31.9603 11.3044C32.0864 11.4318 32.1494 11.5816 32.1494 11.7538V17.641C32.1494 17.701 32.1828 17.7309 32.2495 17.7309H34.9526C35.1232 17.7309 35.2715 17.7946 35.3976 17.9219C35.5237 18.0492 35.5867 18.199 35.5867 18.3713V18.6747C35.5867 18.8469 35.5237 18.9967 35.3976 19.1241C35.2715 19.2514 35.1232 19.3151 34.9526 19.3151H30.8368Z" fill="#465475"/>
<path d="M37.8485 19.3151C37.678 19.3151 37.5297 19.2514 37.4036 19.1241C37.2849 18.9967 37.2256 18.8469 37.2256 18.6747V11.7538C37.2256 11.5816 37.2849 11.4318 37.4036 11.3044C37.5297 11.1771 37.678 11.1134 37.8485 11.1134H41.7864C41.957 11.1134 42.1016 11.1771 42.2203 11.3044C42.3463 11.4318 42.4094 11.5816 42.4094 11.7538V12.0122C42.4094 12.1845 42.3463 12.3343 42.2203 12.4616C42.1016 12.589 41.957 12.6526 41.7864 12.6526H39.2057C39.1463 12.6526 39.1167 12.6826 39.1167 12.7425V14.2256C39.1167 14.293 39.1463 14.3267 39.2057 14.3267H41.564C41.7345 14.3267 41.8791 14.3903 41.9978 14.5177C42.1239 14.645 42.1869 14.7948 42.1869 14.9671V15.1356C42.1869 15.3079 42.1239 15.4577 41.9978 15.585C41.8791 15.7123 41.7345 15.776 41.564 15.776H39.2057C39.1463 15.776 39.1167 15.806 39.1167 15.8659V17.686C39.1167 17.7459 39.1463 17.7759 39.2057 17.7759H41.7864C41.957 17.7759 42.1016 17.8395 42.2203 17.9669C42.3463 18.0942 42.4094 18.244 42.4094 18.4163V18.6747C42.4094 18.8469 42.3463 18.9967 42.2203 19.1241C42.1016 19.2514 41.957 19.3151 41.7864 19.3151H37.8485Z" fill="#465475"/>
<path d="M44.5719 12.6976C44.4013 12.6976 44.253 12.6339 44.1269 12.5066C44.0008 12.3792 43.9378 12.2294 43.9378 12.0572V11.7538C43.9378 11.5816 44.0008 11.4318 44.1269 11.3044C44.253 11.1771 44.4013 11.1134 44.5719 11.1134H49.5332C49.7037 11.1134 49.8521 11.1771 49.9781 11.3044C50.1042 11.4318 50.1672 11.5816 50.1672 11.7538V12.0572C50.1672 12.2294 50.1042 12.3792 49.9781 12.5066C49.8521 12.6339 49.7037 12.6976 49.5332 12.6976H48.1093C48.05 12.6976 48.0203 12.7275 48.0203 12.7875V18.6747C48.0203 18.8469 47.9573 18.9967 47.8312 19.1241C47.7051 19.2514 47.5568 19.3151 47.3862 19.3151H46.7188C46.5482 19.3151 46.3999 19.2514 46.2738 19.1241C46.1478 18.9967 46.0847 18.8469 46.0847 18.6747V12.7875C46.0847 12.7275 46.0551 12.6976 45.9957 12.6976H44.5719Z" fill="#465475"/>
<path d="M52.4266 19.3151C52.2561 19.3151 52.1077 19.2514 51.9817 19.1241C51.863 18.9967 51.8037 18.8469 51.8037 18.6747V11.7538C51.8037 11.5816 51.863 11.4318 51.9817 11.3044C52.1077 11.1771 52.2561 11.1134 52.4266 11.1134H56.3645C56.5351 11.1134 56.6797 11.1771 56.7984 11.3044C56.9244 11.4318 56.9875 11.5816 56.9875 11.7538V12.0122C56.9875 12.1845 56.9244 12.3343 56.7984 12.4616C56.6797 12.589 56.5351 12.6526 56.3645 12.6526H53.7838C53.7244 12.6526 53.6948 12.6826 53.6948 12.7425V14.2256C53.6948 14.293 53.7244 14.3267 53.7838 14.3267H56.142C56.3126 14.3267 56.4572 14.3903 56.5759 14.5177C56.702 14.645 56.765 14.7948 56.765 14.9671V15.1356C56.765 15.3079 56.702 15.4577 56.5759 15.585C56.4572 15.7123 56.3126 15.776 56.142 15.776H53.7838C53.7244 15.776 53.6948 15.806 53.6948 15.8659V17.686C53.6948 17.7459 53.7244 17.7759 53.7838 17.7759H56.3645C56.5351 17.7759 56.6797 17.8395 56.7984 17.9669C56.9244 18.0942 56.9875 18.244 56.9875 18.4163V18.6747C56.9875 18.8469 56.9244 18.9967 56.7984 19.1241C56.6797 19.2514 56.5351 19.3151 56.3645 19.3151H52.4266Z" fill="#465475"/>
</svg>
