<svg width="151" height="54" viewBox="0 0 151 54" fill="none" xmlns="http://www.w3.org/2000/svg">
<path d="M15.0391 43.4883C11.0286 43.4883 7.76042 42.1862 5.23438 39.582C2.70833 36.9648 1.44531 33.5599 1.44531 29.3672C1.44531 24.9401 2.72786 21.3594 5.29297 18.625C7.85807 15.8906 11.2565 14.5234 15.4883 14.5234C19.4857 14.5234 22.7148 15.832 25.1758 18.4492C27.6497 21.0664 28.8867 24.5169 28.8867 28.8008C28.8867 33.2018 27.6042 36.75 25.0391 39.4453C22.487 42.1406 19.1536 43.4883 15.0391 43.4883ZM15.3125 19.9531C13.099 19.9531 11.3411 20.7865 10.0391 22.4531C8.73698 24.1068 8.08594 26.3008 8.08594 29.0352C8.08594 31.8086 8.73698 34.0026 10.0391 35.6172C11.3411 37.2318 13.0469 38.0391 15.1562 38.0391C17.3307 38.0391 19.056 37.2578 20.332 35.6953C21.6081 34.1198 22.2461 31.9388 22.2461 29.1523C22.2461 26.2487 21.6276 23.9896 20.3906 22.375C19.1536 20.7604 17.4609 19.9531 15.3125 19.9531ZM52.2656 43H46.1133V31.8867C46.1133 28.7878 45.0065 27.2383 42.793 27.2383C41.7253 27.2383 40.8464 27.6484 40.1562 28.4688C39.4661 29.2891 39.1211 30.3307 39.1211 31.5938V43H32.9492V23H39.1211V26.1641H39.1992C40.6706 23.7292 42.8125 22.5117 45.625 22.5117C50.0521 22.5117 52.2656 25.2591 52.2656 30.7539V43ZM88.9062 42.0039C86.862 42.9935 84.1927 43.4883 80.8984 43.4883C76.6016 43.4883 73.2227 42.2253 70.7617 39.6992C68.3008 37.1732 67.0703 33.8073 67.0703 29.6016C67.0703 25.1224 68.4505 21.4896 71.2109 18.7031C73.9844 15.9167 77.5781 14.5234 81.9922 14.5234C84.7266 14.5234 87.0312 14.8685 88.9062 15.5586V21.6328C87.0312 20.513 84.8958 19.9531 82.5 19.9531C79.8698 19.9531 77.7474 20.7799 76.1328 22.4336C74.5182 24.0872 73.7109 26.3268 73.7109 29.1523C73.7109 31.8607 74.4727 34.0221 75.9961 35.6367C77.5195 37.2383 79.5703 38.0391 82.1484 38.0391C84.6094 38.0391 86.862 37.4401 88.9062 36.2422V42.0039ZM109.824 43H103.984V40.1289H103.906C102.565 42.3685 100.579 43.4883 97.9492 43.4883C96.0091 43.4883 94.4792 42.9414 93.3594 41.8477C92.2526 40.7409 91.6992 39.2695 91.6992 37.4336C91.6992 33.5534 93.9974 31.3138 98.5938 30.7148L104.023 29.9922C104.023 27.8047 102.839 26.7109 100.469 26.7109C98.0859 26.7109 95.8203 27.4206 93.6719 28.8398V24.1914C94.5312 23.7487 95.7031 23.3581 97.1875 23.0195C98.6849 22.681 100.046 22.5117 101.27 22.5117C106.973 22.5117 109.824 25.3568 109.824 31.0469V43ZM104.023 34.875V33.5273L100.391 33.9961C98.3854 34.2565 97.3828 35.1615 97.3828 36.7109C97.3828 37.4141 97.6237 37.9935 98.1055 38.4492C98.6003 38.8919 99.2643 39.1133 100.098 39.1133C101.257 39.1133 102.201 38.7161 102.93 37.9219C103.659 37.1146 104.023 36.099 104.023 34.875ZM127.754 18.1172C126.96 17.8047 126.198 17.6484 125.469 17.6484C123.49 17.6484 122.5 18.7227 122.5 20.8711V23H127.07V27.5508H122.5V43H116.348V27.5508H112.988V23H116.348V20.5195C116.348 18.2409 117.09 16.4049 118.574 15.0117C120.059 13.6185 122.077 12.9219 124.629 12.9219C125.879 12.9219 126.921 13.0521 127.754 13.3125V18.1172ZM148.027 34.7578H134.98C135.189 37.6615 137.018 39.1133 140.469 39.1133C142.669 39.1133 144.603 38.5924 146.27 37.5508V42.0039C144.421 42.9935 142.018 43.4883 139.062 43.4883C135.833 43.4883 133.327 42.5964 131.543 40.8125C129.759 39.0156 128.867 36.5156 128.867 33.3125C128.867 29.9922 129.831 27.362 131.758 25.4219C133.685 23.4818 136.055 22.5117 138.867 22.5117C141.784 22.5117 144.036 23.3776 145.625 25.1094C147.227 26.8411 148.027 29.1914 148.027 32.1602V34.7578ZM142.305 30.9688C142.305 28.1042 141.146 26.6719 138.828 26.6719C137.839 26.6719 136.979 27.082 136.25 27.9023C135.534 28.7227 135.098 29.7448 134.941 30.9688H142.305ZM145.449 13.5273L139.336 19.8359H134.883L139.961 13.5273H145.449Z" fill="black"/>
<path d="M28.431 9.47656C24.3077 10.2236 12.6658 16.6892 12.4231 27.6373C12.1774 38.5823 4.1734 47.6626 1.26367 49.2783C6.60065 49.4058 17.0289 42.0656 17.2716 31.1176C17.5173 20.1726 25.5183 11.0922 28.431 9.47656Z" fill="#FF6464"/>
</svg>
