<svg width="366" height="71" viewBox="0 0 366 71" fill="none" xmlns="http://www.w3.org/2000/svg">
<path d="M39.9062 52.207L40.5598 53.5572L41.4062 53.1474V52.207H39.9062ZM7.24609 48.0586L6.17168 49.1053L7.24609 48.0586ZM8.05469 10.2656L6.99154 9.20745L6.98906 9.20996L8.05469 10.2656ZM39.9062 4.60547H41.4062V3.55918L40.4244 3.19779L39.9062 4.60547ZM39.9062 15.5391L39.1371 16.8269L41.4062 18.182V15.5391H39.9062ZM16.668 40.7461L15.577 41.7755L15.5811 41.7799L16.668 40.7461ZM39.9062 41.8359H41.4062V39.2184L39.1479 40.5418L39.9062 41.8359ZM39.2527 50.8569C35.8474 52.5053 31.2899 53.3789 25.4922 53.3789V56.3789C31.5539 56.3789 36.6057 55.4712 40.5598 53.5572L39.2527 50.8569ZM25.4922 53.3789C18.0679 53.3789 12.4081 51.2076 8.32051 47.0119L6.17168 49.1053C10.9435 54.0034 17.4477 56.3789 25.4922 56.3789V53.3789ZM8.32051 47.0119C4.2151 42.7979 2.10156 37.1425 2.10156 29.8828H-0.898438C-0.898438 37.7637 1.41771 44.2256 6.17168 49.1053L8.32051 47.0119ZM2.10156 29.8828C2.10156 22.1548 4.46995 16.0155 9.12032 11.3213L6.98906 9.20996C1.70192 14.547 -0.898438 21.4858 -0.898438 29.8828H2.10156ZM9.11783 11.3238C13.7929 6.62681 19.8611 4.24219 27.4609 4.24219V1.24219C19.1701 1.24219 12.3009 3.87319 6.99155 9.20745L9.11783 11.3238ZM27.4609 4.24219C32.2667 4.24219 36.2278 4.84996 39.3881 6.01315L40.4244 3.19779C36.8347 1.8766 32.4989 1.24219 27.4609 1.24219V4.24219ZM38.4062 4.60547V15.5391H41.4062V4.60547H38.4062ZM40.6754 14.2512C37.0456 12.0835 32.9312 11.0156 28.375 11.0156V14.0156C32.4438 14.0156 36.0169 14.9634 39.1371 16.8269L40.6754 14.2512ZM28.375 11.0156C23.2975 11.0156 19.0692 12.626 15.8408 15.9326L17.9873 18.0284C20.5714 15.3818 23.9838 14.0156 28.375 14.0156V11.0156ZM15.8408 15.9326C12.6026 19.2491 11.0547 23.6891 11.0547 29.0742H14.0547C14.0547 24.2875 15.413 20.6649 17.9873 18.0284L15.8408 15.9326ZM11.0547 29.0742C11.0547 34.2431 12.5169 38.5323 15.577 41.7755L17.759 39.7167C15.3347 37.1474 14.0547 33.6553 14.0547 29.0742H11.0547ZM15.5811 41.7799C18.654 45.0103 22.7651 46.5703 27.7422 46.5703V43.5703C23.438 43.5703 20.1664 42.2475 17.7548 39.7123L15.5811 41.7799ZM27.7422 46.5703C32.4277 46.5703 36.7458 45.4265 40.6646 43.1301L39.1479 40.5418C35.7073 42.5579 31.916 43.5703 27.7422 43.5703V46.5703ZM38.4062 41.8359V52.207H41.4062V41.8359H38.4062ZM77.5586 54V55.5H79.0586V54H77.5586ZM67.0469 54H65.5469V55.5H67.0469V54ZM67.0469 48.832H68.5469V47.332H67.0469V48.832ZM66.9062 48.832V47.332H66.0561L65.6194 48.0614L66.9062 48.832ZM47.9219 51.9258L46.8612 52.9864L46.8675 52.9927L46.8738 52.9988L47.9219 51.9258ZM57.3438 31.8867L57.5376 33.3741L57.5416 33.3736L57.3438 31.8867ZM67.1172 30.5859L67.3151 32.0728L68.6172 31.8995V30.5859H67.1172ZM48.4844 28.5117H46.9844V31.3004L49.3112 29.7633L48.4844 28.5117ZM48.4844 20.1445L47.7974 18.8111L46.9844 19.2299V20.1445H48.4844ZM54.8125 18.0352L54.4817 16.5721L54.479 16.5727L54.8125 18.0352ZM67.1172 36.9492H68.6172V35.2432L66.9252 35.4616L67.1172 36.9492ZM60.5781 37.793L60.3862 36.3053L60.3849 36.3055L60.5781 37.793ZM56.4648 45.8086L55.434 46.8983L55.4492 46.9126L55.4647 46.9265L56.4648 45.8086ZM65.1484 44.8594L66.2535 45.8738L66.2616 45.8648L65.1484 44.8594ZM77.5586 52.5H67.0469V55.5H77.5586V52.5ZM68.5469 54V48.832H65.5469V54H68.5469ZM67.0469 47.332H66.9062V50.332H67.0469V47.332ZM65.6194 48.0614C63.4787 51.636 60.3955 53.3789 56.1836 53.3789V56.3789C61.4404 56.3789 65.5056 54.0906 68.1931 49.6027L65.6194 48.0614ZM56.1836 53.3789C52.9841 53.3789 50.6418 52.4856 48.97 50.8527L46.8738 52.9988C49.2332 55.3035 52.3987 56.3789 56.1836 56.3789V53.3789ZM48.9825 50.8651C47.3201 49.2027 46.4336 46.9615 46.4336 43.9805H43.4336C43.4336 47.6088 44.5393 50.6645 46.8612 52.9864L48.9825 50.8651ZM46.4336 43.9805C46.4336 40.8021 47.3635 38.4687 49.083 36.793C50.8362 35.0845 53.5846 33.8893 57.5376 33.3741L57.1499 30.3993C52.8295 30.9623 49.3728 32.3217 46.9893 34.6445C44.5721 37 43.4336 40.1745 43.4336 43.9805H46.4336ZM57.5416 33.3736L67.3151 32.0728L66.9193 29.099L57.1459 30.3998L57.5416 33.3736ZM68.6172 30.5859C68.6172 28.3538 68.0071 26.4129 66.535 25.054C65.0856 23.7162 63.0543 23.1797 60.7188 23.1797V26.1797C62.6488 26.1797 63.8167 26.6276 64.5002 27.2585C65.1609 27.8684 65.6172 28.8806 65.6172 30.5859H68.6172ZM60.7188 23.1797C56.1119 23.1797 51.7494 24.5571 47.6576 27.2602L49.3112 29.7633C52.9537 27.357 56.7475 26.1797 60.7188 26.1797V23.1797ZM49.9844 28.5117V20.1445H46.9844V28.5117H49.9844ZM49.1713 21.478C50.5614 20.7619 52.5353 20.093 55.146 19.4976L54.479 16.5727C51.746 17.196 49.5011 17.9334 47.7974 18.8111L49.1713 21.478ZM55.1433 19.4982C57.7562 18.9075 60.0922 18.6211 62.1602 18.6211V15.6211C59.8218 15.6211 57.2595 15.9441 54.4817 16.5721L55.1433 19.4982ZM62.1602 18.6211C67.0626 18.6211 70.4638 19.843 72.6495 22.0238C74.8347 24.2039 76.0586 27.5954 76.0586 32.4844H79.0586C79.0586 27.1312 77.7161 22.841 74.7684 19.9C71.8214 16.9597 67.5233 15.6211 62.1602 15.6211V18.6211ZM76.0586 32.4844V54H79.0586V32.4844H76.0586ZM68.6172 39.375V36.9492H65.6172V39.375H68.6172ZM66.9252 35.4616L60.3862 36.3053L60.7701 39.2806L67.3091 38.4369L66.9252 35.4616ZM60.3849 36.3055C58.4196 36.5607 56.7281 37.1556 55.5125 38.2527C54.2473 39.3947 53.6641 40.9296 53.6641 42.6797H56.6641C56.6641 41.6407 56.9832 40.9666 57.5226 40.4797C58.1118 39.9479 59.1273 39.494 60.7713 39.2805L60.3849 36.3055ZM53.6641 42.6797C53.6641 44.3298 54.2477 45.7761 55.434 46.8983L57.4956 44.7189C56.9476 44.2005 56.6641 43.5609 56.6641 42.6797H53.6641ZM55.4647 46.9265C56.6953 48.0276 58.2794 48.5039 60.0508 48.5039V45.5039C58.8221 45.5039 58.0156 45.1834 57.465 44.6907L55.4647 46.9265ZM60.0508 48.5039C62.5216 48.5039 64.6339 47.6379 66.2534 45.8738L64.0435 43.845C63.038 44.9402 61.7519 45.5039 60.0508 45.5039V48.5039ZM66.2616 45.8648C67.8547 44.101 68.6172 41.8996 68.6172 39.375H65.6172C65.6172 41.2566 65.0672 42.7115 64.0353 43.8539L66.2616 45.8648ZM83.9922 53.0508H82.4922V54.1039L83.4827 54.4616L83.9922 53.0508ZM83.9922 44.0508L84.7663 42.766L82.4922 41.3957V44.0508H83.9922ZM89.4414 46.5117L89.0121 47.949L89.0172 47.9505L89.4414 46.5117ZM99.25 46.5117L98.6126 45.1538L98.6018 45.159L99.25 46.5117ZM98.1953 41.0625L97.5899 42.4349L97.5971 42.4381L97.6044 42.4412L98.1953 41.0625ZM92.7812 39.1641L93.332 37.7688L93.3213 37.7646L93.3105 37.7605L92.7812 39.1641ZM88.9844 37.4414L88.2251 38.735L88.2416 38.7447L88.2583 38.754L88.9844 37.4414ZM86.2422 35.2617L85.1193 36.2563L85.1272 36.2651L85.1351 36.2739L86.2422 35.2617ZM84.5547 32.4141L83.1379 32.9068L83.1427 32.9205L83.1477 32.934L84.5547 32.4141ZM85.293 23.3789L84.0141 22.5951L84.0094 22.6026L84.0049 22.6102L85.293 23.3789ZM88.8086 19.8281L89.6073 21.0978L89.6126 21.0944L88.8086 19.8281ZM93.8359 17.7891L94.1652 19.2525L94.1785 19.2494L93.8359 17.7891ZM104.594 17.5078L104.361 18.9896L104.371 18.9913L104.382 18.9927L104.594 17.5078ZM109.445 18.5625H110.945V17.4401L109.869 17.1235L109.445 18.5625ZM109.445 27.1406L108.69 28.4363L110.945 29.7522V27.1406H109.445ZM104.91 25.3125L104.526 26.7626L104.539 26.7659L104.551 26.7689L104.91 25.3125ZM98.125 24.8906L98.3981 26.3655L98.4188 26.3617L98.4393 26.3573L98.125 24.8906ZM96.4375 25.4531L97.0824 26.8074L97.1082 26.7951L97.1335 26.7819L96.4375 25.4531ZM95.2773 26.4023L96.4773 27.3023L96.4903 27.285L96.5028 27.2674L95.2773 26.4023ZM97.1406 30.6211L96.4515 31.9534L96.4699 31.9629L96.4885 31.9719L97.1406 30.6211ZM99.3906 31.5352L98.9041 32.9541L98.9281 32.9623L98.9523 32.9697L99.3906 31.5352ZM101.887 32.3438L102.381 30.9276L102.373 30.9248L101.887 32.3438ZM108.953 36.1758L107.908 37.2513L107.915 37.2584L107.922 37.2655L108.953 36.1758ZM110.922 39.0586L109.531 39.6208L109.536 39.6334L109.542 39.6459L110.922 39.0586ZM110.219 48.4805L108.941 47.6943L108.938 47.6999L110.219 48.4805ZM106.527 52.1719L107.313 53.4494L107.319 53.446L106.527 52.1719ZM101.219 54.2109L100.911 52.7428L100.901 52.7448L100.892 52.7471L101.219 54.2109ZM85.4922 53.0508V44.0508H82.4922V53.0508H85.4922ZM83.218 45.3356C85.1401 46.4938 87.0717 47.3694 89.0121 47.949L89.8707 45.0745C88.2017 44.5759 86.5005 43.8109 84.7663 42.766L83.218 45.3356ZM89.0172 47.9505C90.9592 48.5231 92.8256 48.8203 94.6094 48.8203V45.8203C93.1587 45.8203 91.5799 45.5784 89.8657 45.073L89.0172 47.9505ZM94.6094 48.8203C96.6864 48.8203 98.4873 48.5405 99.8982 47.8644L98.6018 45.159C97.7627 45.5611 96.4698 45.8203 94.6094 45.8203V48.8203ZM99.8874 47.8696C100.637 47.5179 101.298 47.0273 101.771 46.3524C102.252 45.6649 102.473 44.8771 102.473 44.0508H99.4727C99.4727 44.3261 99.4061 44.4992 99.3131 44.632C99.2114 44.7773 99.0119 44.9665 98.6126 45.1539L99.8874 47.8696ZM102.473 44.0508C102.473 42.9294 102.04 41.939 101.208 41.1831L99.1902 43.4029C99.3899 43.5844 99.4727 43.7659 99.4727 44.0508H102.473ZM101.208 41.1831C100.54 40.5756 99.7189 40.0835 98.7862 39.6838L97.6044 42.4412C98.3123 42.7446 98.8272 43.0728 99.1902 43.4029L101.208 41.1831ZM98.8008 39.6901C97.936 39.3086 96.9946 38.9706 95.9799 38.6737L95.1372 41.5529C96.0445 41.8184 96.8609 42.1133 97.5899 42.4349L98.8008 39.6901ZM95.9799 38.6737C95.0608 38.4047 94.1783 38.1029 93.332 37.7688L92.2305 40.5593C93.1654 40.9284 94.1345 41.2594 95.1372 41.5529L95.9799 38.6737ZM93.3105 37.7605C91.9347 37.2418 90.737 36.6967 89.7105 36.1289L88.2583 38.754C89.4349 39.4048 90.7684 40.0082 92.252 40.5676L93.3105 37.7605ZM89.7437 36.1478C88.779 35.5816 87.9863 34.9464 87.3492 34.2496L85.1351 36.2739C85.9981 37.2177 87.0335 38.0356 88.2251 38.735L89.7437 36.1478ZM87.3651 34.2672C86.7678 33.5928 86.2988 32.8064 85.9617 31.8941L83.1477 32.934C83.6074 34.178 84.2635 35.29 85.1193 36.2563L87.3651 34.2672ZM85.9714 31.9213C85.665 31.0404 85.4922 29.9375 85.4922 28.582H82.4922C82.4922 30.1797 82.6943 31.6315 83.1379 32.9068L85.9714 31.9213ZM85.4922 28.582C85.4922 26.785 85.877 25.3273 86.581 24.1476L84.0049 22.6102C82.9746 24.3367 82.4922 26.3478 82.4922 28.582H85.4922ZM86.5719 24.1628C87.341 22.9078 88.348 21.8899 89.6073 21.0978L88.0099 18.5584C86.363 19.5944 85.0262 20.9437 84.0141 22.5951L86.5719 24.1628ZM89.6126 21.0944C90.9297 20.2582 92.442 19.6402 94.1652 19.2525L93.5067 16.3256C91.4799 16.7817 89.6406 17.5231 88.0046 18.5618L89.6126 21.0944ZM94.1785 19.2494C95.9596 18.8316 97.8132 18.6211 99.7422 18.6211V15.6211C97.5931 15.6211 95.5091 15.8559 93.4934 16.3287L94.1785 19.2494ZM99.7422 18.6211C101.255 18.6211 102.794 18.7434 104.361 18.9896L104.827 16.026C103.112 15.7566 101.417 15.6211 99.7422 15.6211V18.6211ZM104.382 18.9927C105.951 19.2169 107.497 19.5531 109.022 20.0015L109.869 17.1235C108.206 16.6344 106.518 16.2675 104.806 16.0229L104.382 18.9927ZM107.945 18.5625V27.1406H110.945V18.5625H107.945ZM110.201 25.845C108.668 24.9507 107.022 24.288 105.269 23.8561L104.551 26.7689C106.032 27.1339 107.41 27.6899 108.69 28.4363L110.201 25.845ZM105.294 23.8624C103.583 23.4096 101.884 23.1797 100.199 23.1797V26.1797C101.608 26.1797 103.05 26.3717 104.526 26.7626L105.294 23.8624ZM100.199 23.1797C99.3756 23.1797 98.5784 23.2594 97.8107 23.4239L98.4393 26.3573C98.9841 26.2406 99.5697 26.1797 100.199 26.1797V23.1797ZM97.8519 23.4157C97.0944 23.556 96.3856 23.787 95.7415 24.1244L97.1335 26.7819C97.4737 26.6037 97.89 26.4596 98.3981 26.3655L97.8519 23.4157ZM95.7926 24.0988C95.096 24.4305 94.4984 24.9048 94.0519 25.5373L96.5028 27.2674C96.6188 27.103 96.7946 26.9445 97.0824 26.8074L95.7926 24.0988ZM94.0773 25.5023C93.5912 26.1505 93.3555 26.9037 93.3555 27.7031H96.3555C96.3555 27.5181 96.401 27.4042 96.4773 27.3023L94.0773 25.5023ZM93.3555 27.7031C93.3555 28.7134 93.6927 29.6378 94.3733 30.3941L96.6032 28.3872C96.4401 28.2059 96.3555 28.0053 96.3555 27.7031H93.3555ZM94.3733 30.3941C94.9389 31.0225 95.6445 31.536 96.4515 31.9534L97.8298 29.2888C97.2774 29.0031 96.8814 28.6963 96.6032 28.3872L94.3733 30.3941ZM96.4885 31.9719C97.2292 32.3295 98.0354 32.6562 98.9041 32.9541L99.8771 30.1162C99.1052 29.8516 98.4114 29.5689 97.7927 29.2703L96.4885 31.9719ZM98.9523 32.9697C99.7802 33.2226 100.596 33.487 101.4 33.7627L102.373 30.9248C101.537 30.638 100.689 30.3633 99.829 30.1006L98.9523 32.9697ZM101.392 33.7599C102.815 34.2567 104.087 34.7936 105.213 35.3676L106.576 32.6949C105.311 32.0502 103.912 31.462 102.381 30.9276L101.392 33.7599ZM105.213 35.3676C106.293 35.9181 107.185 36.5492 107.908 37.2513L109.999 35.1003C109.033 34.1618 107.887 33.3631 106.576 32.6949L105.213 35.3676ZM107.922 37.2655C108.634 37.9385 109.167 38.7198 109.531 39.6208L112.313 38.4964C111.786 37.1943 111.007 36.0536 109.984 35.0861L107.922 37.2655ZM109.542 39.6459C109.913 40.5186 110.125 41.6216 110.125 42.9961H113.125C113.125 41.3237 112.868 39.8017 112.302 38.4713L109.542 39.6459ZM110.125 42.9961C110.125 44.9052 109.707 46.4493 108.941 47.6943L111.496 49.2666C112.605 47.4648 113.125 45.3526 113.125 42.9961H110.125ZM108.938 47.6999C108.151 48.9919 107.091 50.056 105.736 50.8977L107.319 53.446C109.058 52.3659 110.459 50.9691 111.5 49.261L108.938 47.6999ZM105.741 50.8944C104.386 51.7286 102.783 52.3511 100.911 52.7428L101.526 55.6791C103.686 55.2271 105.622 54.4902 107.313 53.4494L105.741 50.8944ZM100.892 52.7471C99.0126 53.1671 97.0484 53.3789 94.9961 53.3789V56.3789C97.2562 56.3789 99.4405 56.1454 101.546 55.6748L100.892 52.7471ZM94.9961 53.3789C91.1909 53.3789 87.6972 52.7939 84.5017 51.64L83.4827 54.4616C87.0372 55.7452 90.8794 56.3789 94.9961 56.3789V53.3789ZM150.402 39.1641V40.6641H151.902V39.1641H150.402ZM126.918 39.1641V37.6641H125.306L125.422 39.2714L126.918 39.1641ZM147.238 44.1914H148.738V41.485L146.443 42.9194L147.238 44.1914ZM147.238 52.207L147.946 53.5295L148.738 53.1055V52.207H147.238ZM120.73 50.0625L119.666 51.1193L119.67 51.1232L120.73 50.0625ZM146.078 21.7969L144.973 22.8108L144.977 22.8153L146.078 21.7969ZM140.102 32.3438V33.8438H141.602V32.3438H140.102ZM129.203 26.8242L128.082 25.8276L128.073 25.8377L129.203 26.8242ZM126.848 32.3438L125.36 32.1538L125.144 33.8438H126.848V32.3438ZM150.402 37.6641H126.918V40.6641H150.402V37.6641ZM125.422 39.2714C125.631 42.1931 126.683 44.5892 128.736 46.2189C130.749 47.8158 133.508 48.5039 136.797 48.5039V45.5039C133.874 45.5039 131.882 44.8854 130.601 43.869C129.362 42.8854 128.579 41.3616 128.414 39.0567L125.422 39.2714ZM136.797 48.5039C141.004 48.5039 144.767 47.5047 148.033 45.4634L146.443 42.9194C143.709 44.6281 140.511 45.5039 136.797 45.5039V48.5039ZM145.738 44.1914V52.207H148.738V44.1914H145.738ZM146.53 50.8845C143.491 52.5113 139.434 53.3789 134.266 53.3789V56.3789C139.738 56.3789 144.329 55.4652 147.946 53.5295L146.53 50.8845ZM134.266 53.3789C128.734 53.3789 124.648 51.8585 121.791 49.0018L119.67 51.1232C123.235 54.6884 128.172 56.3789 134.266 56.3789V53.3789ZM121.795 49.0057C118.932 46.1219 117.414 42.0425 117.414 36.5625H114.414C114.414 42.6138 116.107 47.5343 119.666 51.1193L121.795 49.0057ZM117.414 36.5625C117.414 30.8916 119.05 26.5694 122.181 23.4165L120.053 21.3023C116.247 25.1337 114.414 30.2802 114.414 36.5625H117.414ZM122.181 23.4165C125.36 20.2167 129.238 18.6211 133.914 18.6211V15.6211C128.465 15.6211 123.812 17.5177 120.053 21.3023L122.181 23.4165ZM133.914 18.6211C138.853 18.6211 142.464 20.0754 144.973 22.8108L147.184 20.7829C143.974 17.284 139.476 15.6211 133.914 15.6211V18.6211ZM144.977 22.8153C147.542 25.5887 148.902 29.4204 148.902 34.4883H151.902C151.902 28.8686 150.38 24.2394 147.179 20.7784L144.977 22.8153ZM148.902 34.4883V39.1641H151.902V34.4883H148.902ZM141.602 32.3438C141.602 29.6024 141.053 27.2682 139.703 25.5995C138.304 23.87 136.255 23.1094 133.844 23.1094V26.1094C135.604 26.1094 136.684 26.6378 137.371 27.4865C138.107 28.3958 138.602 29.9289 138.602 32.3438H141.602ZM133.844 23.1094C131.584 23.1094 129.644 24.0699 128.082 25.8277L130.324 27.8208C131.387 26.6254 132.541 26.1094 133.844 26.1094V23.1094ZM128.073 25.8377C126.563 27.5674 125.673 29.6961 125.36 32.1538L128.336 32.5337C128.584 30.5851 129.265 29.0342 130.333 27.8107L128.073 25.8377ZM126.848 33.8438H140.102V30.8438H126.848V33.8438ZM175.68 52.0664H174.18V52.9829L174.995 53.4011L175.68 52.0664ZM175.68 40.8164L176.644 39.6673L174.18 37.5997V40.8164H175.68ZM182.324 44.6836L181.813 46.0937L181.825 46.0981L182.324 44.6836ZM193.293 45.5625L192.944 44.1036L192.937 44.1054L193.293 45.5625ZM195.965 44.5078L196.767 45.7751L196.778 45.7683L195.965 44.5078ZM197.582 42.8906L198.881 43.6402L198.887 43.6297L198.893 43.6191L197.582 42.8906ZM194.945 36.0703L194.099 37.309L194.106 37.3137L194.113 37.3184L194.945 36.0703ZM187.176 32.3086L186.599 33.6932L186.608 33.6969L187.176 32.3086ZM178.352 26.2969L177.187 27.2423L177.193 27.2492L178.352 26.2969ZM177.051 10.9688L178.358 11.7042L178.362 11.6972L177.051 10.9688ZM181.34 6.29297L180.508 5.04487L180.5 5.04988L181.34 6.29297ZM187.668 3.62109L188.012 5.08128L188.025 5.07797L187.668 3.62109ZM202.223 3.23438L201.982 4.71489L201.991 4.71646L202.001 4.71791L202.223 3.23438ZM207.848 4.67578H209.348V3.64457L208.385 3.27527L207.848 4.67578ZM207.848 15.1875L206.992 16.4196L209.348 18.0554V15.1875H207.848ZM205.07 13.6406L204.452 15.0073L204.464 15.0127L205.07 13.6406ZM202.012 12.5508L201.595 13.9919L201.61 13.9961L201.625 14.0001L202.012 12.5508ZM198.848 11.8828L198.645 13.3691L198.649 13.3697L198.848 11.8828ZM192.379 12.0586L192.704 13.5229L192.72 13.5194L192.735 13.5157L192.379 12.0586ZM188.02 14.6953L189.275 15.5162L189.282 15.5054L189.289 15.4945L188.02 14.6953ZM188.09 19.0547L186.835 19.8767L186.842 19.8869L186.849 19.8969L188.09 19.0547ZM189.988 20.9531L189.094 22.1572L189.105 22.1656L189.116 22.1737L189.988 20.9531ZM192.977 22.7109L192.306 24.0526L192.317 24.058L192.327 24.0632L192.977 22.7109ZM196.949 24.4688L197.528 23.0851L197.521 23.0822L196.949 24.4688ZM202.363 27.1758L201.589 28.4604L201.6 28.467L201.611 28.4735L202.363 27.1758ZM209.148 34.4883L207.753 35.0381L207.756 35.0454L209.148 34.4883ZM208.445 46.9336L207.137 46.1997L207.134 46.2051L208.445 46.9336ZM204.121 51.5742L204.931 52.8371L204.942 52.8297L204.121 51.5742ZM197.723 54.1055L197.412 52.6379L197.409 52.6386L197.723 54.1055ZM182.148 54.1758L181.87 55.6498L181.873 55.6502L182.148 54.1758ZM177.18 52.0664V40.8164H174.18V52.0664H177.18ZM174.716 41.9655C176.883 43.7839 179.249 45.1639 181.813 46.0937L182.836 43.2735C180.618 42.4689 178.555 41.2708 176.644 39.6673L174.716 41.9655ZM181.825 46.0981C184.369 46.9961 186.952 47.4492 189.566 47.4492V44.4492C187.306 44.4492 185.06 44.0586 182.823 43.2691L181.825 46.0981ZM189.566 47.4492C191.081 47.4492 192.448 47.3132 193.649 47.0196L192.937 44.1054C192.029 44.3274 190.912 44.4492 189.566 44.4492V47.4492ZM193.642 47.0214C194.831 46.7371 195.887 46.3327 196.767 45.775L195.162 43.2406C194.636 43.5736 193.911 43.8723 192.944 44.1036L193.642 47.0214ZM196.778 45.7683C197.66 45.1994 198.386 44.4981 198.881 43.6402L196.283 42.141C196.075 42.5019 195.723 42.8787 195.152 43.2474L196.778 45.7683ZM198.893 43.6191C199.369 42.7626 199.609 41.8321 199.609 40.8516H196.609C196.609 41.3242 196.498 41.753 196.271 42.1622L198.893 43.6191ZM199.609 40.8516C199.609 39.5601 199.233 38.3703 198.479 37.3326L196.053 39.0971C196.423 39.6062 196.609 40.1743 196.609 40.8516H199.609ZM198.479 37.3326C197.79 36.3861 196.876 35.5544 195.777 34.8222L194.113 37.3184C194.984 37.8987 195.616 38.4967 196.053 39.0971L198.479 37.3326ZM195.791 34.8316C194.744 34.1165 193.517 33.4433 192.123 32.8071L190.877 35.5366C192.155 36.1192 193.225 36.7117 194.099 37.309L195.791 34.8316ZM192.123 32.8071C190.766 32.1885 189.307 31.5596 187.744 30.9203L186.608 33.6969C188.139 34.3232 189.562 34.9365 190.877 35.5366L192.123 32.8071ZM187.753 30.924C183.958 29.3427 181.251 27.4626 179.51 25.3445L177.193 27.2492C179.343 29.8656 182.519 31.9932 186.599 33.6932L187.753 30.924ZM179.516 25.3514C177.833 23.2785 176.969 20.7624 176.969 17.7188H173.969C173.969 21.3782 175.026 24.5809 177.187 27.2423L179.516 25.3514ZM176.969 17.7188C176.969 15.295 177.455 13.3101 178.358 11.7041L175.743 10.2334C174.537 12.3774 173.969 14.8925 173.969 17.7188H176.969ZM178.362 11.6972C179.302 10.0056 180.57 8.62313 182.179 7.53605L180.5 5.04988C178.501 6.40031 176.909 8.13501 175.74 10.2403L178.362 11.6972ZM182.172 7.54104C183.835 6.43254 185.775 5.60754 188.012 5.08122L187.324 2.16097C184.78 2.75965 182.501 3.7159 180.508 5.04489L182.172 7.54104ZM188.025 5.07797C190.289 4.523 192.7 4.24219 195.262 4.24219V1.24219C192.48 1.24219 189.828 1.54731 187.311 2.16422L188.025 5.07797ZM195.262 4.24219C197.828 4.24219 200.064 4.40278 201.982 4.71489L202.464 1.75386C200.35 1.40972 197.946 1.24219 195.262 1.24219V4.24219ZM202.001 4.71791C203.945 5.00844 205.713 5.46361 207.31 6.07629L208.385 3.27527C206.56 2.57545 204.578 2.06968 202.444 1.75084L202.001 4.71791ZM206.348 4.67578V15.1875H209.348V4.67578H206.348ZM208.703 13.9554C207.776 13.3112 206.765 12.7497 205.677 12.2686L204.464 15.0127C205.391 15.4221 206.232 15.8919 206.992 16.4196L208.703 13.9554ZM205.689 12.274C204.629 11.7944 203.531 11.4036 202.398 11.1014L201.625 14.0001C202.601 14.2604 203.543 14.5962 204.452 15.0073L205.689 12.274ZM202.428 11.1097C201.304 10.785 200.177 10.5467 199.046 10.396L198.649 13.3697C199.628 13.5001 200.61 13.7072 201.595 13.9919L202.428 11.1097ZM199.05 10.3966C197.959 10.2478 196.907 10.1719 195.895 10.1719V13.1719C196.757 13.1719 197.674 13.2366 198.645 13.3691L199.05 10.3966ZM195.895 10.1719C194.507 10.1719 193.213 10.3105 192.023 10.6015L192.735 13.5157C193.654 13.2911 194.704 13.1719 195.895 13.1719V10.1719ZM192.054 10.5943C190.878 10.8555 189.823 11.2475 188.923 11.7992L190.491 14.357C191.044 14.0181 191.77 13.7304 192.704 13.5229L192.054 10.5943ZM188.923 11.7992C188.028 12.3481 187.288 13.0426 186.75 13.8961L189.289 15.4945C189.548 15.0824 189.933 14.6988 190.491 14.357L188.923 11.7992ZM186.764 13.8744C186.196 14.7433 185.922 15.7236 185.922 16.7695H188.922C188.922 16.2686 189.046 15.866 189.275 15.5162L186.764 13.8744ZM185.922 16.7695C185.922 17.8935 186.223 18.943 186.835 19.8767L189.345 18.2326C189.066 17.807 188.922 17.3331 188.922 16.7695H185.922ZM186.849 19.8969C187.411 20.726 188.175 21.475 189.094 22.1572L190.883 19.749C190.161 19.2125 189.659 18.6959 189.331 18.2124L186.849 19.8969ZM189.116 22.1737C190.016 22.8163 191.083 23.4414 192.306 24.0526L193.647 21.3693C192.526 20.8086 191.601 20.2618 190.86 19.7325L189.116 22.1737ZM192.327 24.0632C193.53 24.6402 194.88 25.2375 196.377 25.8553L197.521 23.0822C196.065 22.4812 194.767 21.9066 193.626 21.3587L192.327 24.0632ZM196.37 25.8524C198.329 26.6727 200.067 27.543 201.589 28.4604L203.138 25.8912C201.472 24.8867 199.6 23.9523 197.528 23.0851L196.37 25.8524ZM201.611 28.4735C203.122 29.3495 204.39 30.332 205.43 31.4142L207.593 29.3358C206.336 28.0274 204.839 26.8771 203.116 25.8781L201.611 28.4735ZM205.43 31.4142C206.443 32.468 207.215 33.6727 207.753 35.0381L210.544 33.9385C209.863 32.2101 208.878 30.6726 207.593 29.3358L205.43 31.4142ZM207.756 35.0454C208.279 36.3544 208.562 37.9391 208.562 39.832H211.562C211.562 37.6469 211.236 35.6691 210.541 33.9312L207.756 35.0454ZM208.562 39.832C208.562 42.457 208.059 44.5557 207.137 46.1997L209.754 47.6675C210.988 45.4678 211.562 42.832 211.562 39.832H208.562ZM207.134 46.2051C206.198 47.8894 204.926 49.2559 203.3 50.3188L204.942 52.8297C206.973 51.5019 208.583 49.7746 209.757 47.6621L207.134 46.2051ZM203.312 50.3114C201.657 51.3722 199.698 52.1544 197.412 52.6379L198.033 55.573C200.622 55.0253 202.929 54.12 204.931 52.837L203.312 50.3114ZM197.409 52.6386C195.107 53.1303 192.658 53.3789 190.059 53.3789V56.3789C192.85 56.3789 195.51 56.1119 198.036 55.5724L197.409 52.6386ZM190.059 53.3789C187.378 53.3789 184.834 53.1517 182.424 52.7013L181.873 55.6502C184.479 56.1373 187.208 56.3789 190.059 56.3789V53.3789ZM182.427 52.7018C180.052 52.2538 178.039 51.5904 176.364 50.7317L174.995 53.4011C176.977 54.4174 179.276 55.1602 181.87 55.6498L182.427 52.7018ZM237.203 53.5781L237.904 54.9043L238.703 54.4819V53.5781H237.203ZM218.043 26.1914H219.543V24.6914H218.043V26.1914ZM212.207 26.1914H210.707V27.6914H212.207V26.1914ZM212.207 18V16.5H210.707V18H212.207ZM218.043 18V19.5H219.543V18H218.043ZM218.043 10.2305L217.631 8.78818L216.543 9.09902V10.2305H218.043ZM229.117 7.06641H230.617V5.07781L228.705 5.62412L229.117 7.06641ZM229.117 18H227.617V19.5H229.117V18ZM237.203 18H238.703V16.5H237.203V18ZM237.203 26.1914V27.6914H238.703V26.1914H237.203ZM229.117 26.1914V24.6914H227.617V26.1914H229.117ZM237.203 45.3516H238.703V42.8209L236.483 44.0357L237.203 45.3516ZM236.502 52.252C235.186 52.9475 233.009 53.3789 229.785 53.3789V56.3789C233.171 56.3789 235.939 55.9431 237.904 54.9043L236.502 52.252ZM229.785 53.3789C226.117 53.3789 223.638 52.4293 222.059 50.7889C220.47 49.1378 219.543 46.5289 219.543 42.6797H216.543C216.543 46.9633 217.573 50.454 219.898 52.8693C222.233 55.2953 225.625 56.3789 229.785 56.3789V53.3789ZM219.543 42.6797V26.1914H216.543V42.6797H219.543ZM218.043 24.6914H212.207V27.6914H218.043V24.6914ZM213.707 26.1914V18H210.707V26.1914H213.707ZM212.207 19.5H218.043V16.5H212.207V19.5ZM219.543 18V10.2305H216.543V18H219.543ZM218.455 11.6728L229.529 8.50869L228.705 5.62412L217.631 8.78818L218.455 11.6728ZM227.617 7.06641V18H230.617V7.06641H227.617ZM229.117 19.5H237.203V16.5H229.117V19.5ZM235.703 18V26.1914H238.703V18H235.703ZM237.203 24.6914H229.117V27.6914H237.203V24.6914ZM227.617 26.1914V40.7461H230.617V26.1914H227.617ZM227.617 40.7461C227.617 42.7793 228.014 44.5814 229.059 45.8974C230.156 47.2795 231.759 47.8711 233.582 47.8711V44.8711C232.429 44.8711 231.8 44.5252 231.408 44.0323C230.965 43.4733 230.617 42.4629 230.617 40.7461H227.617ZM233.582 47.8711C235.053 47.8711 236.506 47.4429 237.923 46.6675L236.483 44.0357C235.416 44.6196 234.455 44.8711 233.582 44.8711V47.8711ZM235.703 45.3516V53.5781H238.703V45.3516H235.703ZM277.703 54V55.5H279.203V54H277.703ZM266.629 54H265.129V55.5H266.629V54ZM266.629 48.5156H268.129V47.0156H266.629V48.5156ZM266.453 48.5156V47.0156H265.637L265.193 47.7013L266.453 48.5156ZM242.934 18V16.5H241.434V18H242.934ZM254.008 18H255.508V16.5H254.008V18ZM264.836 44.2969L265.971 45.2778L265.979 45.2683L264.836 44.2969ZM266.629 18V16.5H265.129V18H266.629ZM277.703 18H279.203V16.5H277.703V18ZM277.703 52.5H266.629V55.5H277.703V52.5ZM268.129 54V48.5156H265.129V54H268.129ZM266.629 47.0156H266.453V50.0156H266.629V47.0156ZM265.193 47.7013C262.695 51.5665 259.477 53.3789 255.449 53.3789V56.3789C260.609 56.3789 264.727 53.9491 267.713 49.3299L265.193 47.7013ZM255.449 53.3789C251.592 53.3789 248.945 52.2253 247.219 50.1356C245.448 47.9909 244.434 44.6085 244.434 39.7266H241.434C241.434 44.9462 242.506 49.1399 244.906 52.0461C247.352 55.0071 250.963 56.3789 255.449 56.3789V53.3789ZM244.434 39.7266V18H241.434V39.7266H244.434ZM242.934 19.5H254.008V16.5H242.934V19.5ZM252.508 18V38.7422H255.508V18H252.508ZM252.508 38.7422C252.508 41.443 253.036 43.7457 254.344 45.3956C255.704 47.112 257.703 47.8711 260.055 47.8711V44.8711C258.375 44.8711 257.35 44.3587 256.695 43.5321C255.987 42.639 255.508 41.1273 255.508 38.7422H252.508ZM260.055 47.8711C262.438 47.8711 264.463 47.0223 265.971 45.2778L263.701 43.3159C262.818 44.3371 261.655 44.8711 260.055 44.8711V47.8711ZM265.979 45.2683C267.466 43.5191 268.129 41.241 268.129 38.6016H265.129C265.129 40.7434 264.597 42.2621 263.693 43.3254L265.979 45.2683ZM268.129 38.6016V18H265.129V38.6016H268.129ZM266.629 19.5H277.703V16.5H266.629V19.5ZM276.203 18V54H279.203V18H276.203ZM322.316 54V55.5H323.816V54H322.316ZM311.207 54H309.707V55.5H311.207V54ZM311.207 49.043H312.707V47.543H311.207V49.043ZM311.066 49.043V47.543H310.253L309.809 48.225L311.066 49.043ZM289.059 50.1328L287.921 51.1111L287.925 51.1152L289.059 50.1328ZM311.066 22.1133L309.752 22.8354L310.179 23.6133H311.066V22.1133ZM311.207 22.1133V23.6133H312.707V22.1133H311.207ZM311.207 0.703125V-0.796875H309.707V0.703125H311.207ZM322.316 0.703125H323.816V-0.796875H322.316V0.703125ZM298.305 28.5469L299.522 29.423L299.527 29.4159L298.305 28.5469ZM309.273 43.6641L308.098 42.7326L308.09 42.7421L309.273 43.6641ZM322.316 52.5H311.207V55.5H322.316V52.5ZM312.707 54V49.043H309.707V54H312.707ZM311.207 47.543H311.066V50.543H311.207V47.543ZM309.809 48.225C307.572 51.6627 304.346 53.3789 299.922 53.3789V56.3789C305.294 56.3789 309.498 54.2045 312.324 49.861L309.809 48.225ZM299.922 53.3789C295.82 53.3789 292.626 51.9589 290.192 49.1504L287.925 51.1152C290.975 54.6349 295.024 56.3789 299.922 56.3789V53.3789ZM290.196 49.1546C287.759 46.3226 286.445 42.2728 286.445 36.8086H283.445C283.445 42.735 284.873 47.568 287.921 51.1111L290.196 49.1546ZM286.445 36.8086C286.445 31.1117 287.888 26.716 290.627 23.4669L288.334 21.5331C285.026 25.4559 283.445 30.5993 283.445 36.8086H286.445ZM290.627 23.4669C293.352 20.2358 296.885 18.6211 301.363 18.6211V15.6211C296.045 15.6211 291.656 17.5923 288.334 21.5331L290.627 23.4669ZM301.363 18.6211C305.601 18.6211 308.25 20.1013 309.752 22.8354L312.381 21.3911C310.227 17.469 306.407 15.6211 301.363 15.6211V18.6211ZM311.066 23.6133H311.207V20.6133H311.066V23.6133ZM312.707 22.1133V0.703125H309.707V22.1133H312.707ZM311.207 2.20312H322.316V-0.796875H311.207V2.20312ZM320.816 0.703125V54H323.816V0.703125H320.816ZM312.918 36.4922V33.7852H309.918V36.4922H312.918ZM312.918 33.7852C312.918 31.1307 312.139 28.8175 310.506 26.959L308.252 28.9394C309.338 30.1747 309.918 31.7521 309.918 33.7852H312.918ZM310.506 26.959C308.843 25.0672 306.653 24.1289 304.07 24.1289V27.1289C305.847 27.1289 307.196 27.7375 308.252 28.9394L310.506 26.959ZM304.07 24.1289C301.142 24.1289 298.757 25.3223 297.082 27.6778L299.527 29.4159C300.618 27.8808 302.077 27.1289 304.07 27.1289V24.1289ZM297.087 27.6708C295.457 29.9358 294.73 32.9318 294.73 36.4922H297.73C297.73 33.3026 298.386 31.0017 299.522 29.4229L297.087 27.6708ZM294.73 36.4922C294.73 39.8429 295.435 42.6565 297.052 44.7278L299.417 42.8815C298.362 41.531 297.73 39.4696 297.73 36.4922H294.73ZM297.052 44.7278C298.701 46.8391 301.008 47.8711 303.789 47.8711V44.8711C301.836 44.8711 300.44 44.1922 299.417 42.8815L297.052 44.7278ZM303.789 47.8711C306.511 47.8711 308.772 46.7483 310.457 44.586L308.09 42.7421C306.963 44.1892 305.568 44.8711 303.789 44.8711V47.8711ZM310.449 44.5955C312.144 42.4567 312.918 39.7068 312.918 36.4922H309.918C309.918 39.2307 309.263 41.262 308.098 42.7326L310.449 44.5955ZM365.945 18L367.349 18.5281L368.112 16.5H365.945V18ZM351.32 56.8828L349.916 56.3547L349.916 56.355L351.32 56.8828ZM328.785 69.9961H327.285V71.059L328.288 71.4113L328.785 69.9961ZM328.785 61.1367L329.545 59.8433L327.285 58.5162V61.1367H328.785ZM339.578 58.3945L338.198 57.8076L338.194 57.8168L339.578 58.3945ZM341.477 53.9297L342.857 54.5166L343.101 53.9423L342.866 53.3642L341.477 53.9297ZM326.852 18V16.5H324.621L325.462 18.5655L326.852 18ZM339.156 18L340.59 17.5603L340.265 16.5H339.156V18ZM345.871 39.9023L344.437 40.342L344.439 40.3469L345.871 39.9023ZM346.855 44.7188L345.367 44.9071L345.533 46.2188H346.855V44.7188ZM346.996 44.7188V46.2188H348.281L348.478 44.9488L346.996 44.7188ZM348.156 39.9727L349.588 40.419L349.589 40.4152L348.156 39.9727ZM354.941 18V16.5H353.835L353.508 17.5574L354.941 18ZM364.541 17.4719L349.916 56.3547L352.724 57.4109L367.349 18.5281L364.541 17.4719ZM349.916 56.355C348.211 60.8906 346.123 64.1564 343.718 66.2788C341.344 68.3742 338.604 69.4102 335.43 69.4102V72.4102C339.334 72.4102 342.781 71.1082 345.704 68.5279C348.596 65.9745 350.914 62.2266 352.724 57.4107L349.916 56.355ZM335.43 69.4102C332.832 69.4102 330.801 69.1145 329.282 68.5809L328.288 71.4113C330.238 72.0964 332.637 72.4102 335.43 72.4102V69.4102ZM330.285 69.9961V61.1367H327.285V69.9961H330.285ZM328.026 62.4301C329.735 63.4344 331.604 63.9375 333.602 63.9375V60.9375C332.131 60.9375 330.788 60.5734 329.545 59.8433L328.026 62.4301ZM333.602 63.9375C335.273 63.9375 336.793 63.5405 338.081 62.6692C339.367 61.7994 340.312 60.5314 340.962 58.9723L338.194 57.8168C337.72 58.953 337.106 59.7065 336.4 60.1843C335.696 60.6607 334.789 60.9375 333.602 60.9375V63.9375ZM340.959 58.9815L342.857 54.5166L340.096 53.3427L338.198 57.8076L340.959 58.9815ZM342.866 53.3642L328.241 17.4345L325.462 18.5655L340.087 54.4952L342.866 53.3642ZM326.852 19.5H339.156V16.5H326.852V19.5ZM337.722 18.4397L344.437 40.342L347.305 39.4627L340.59 17.5603L337.722 18.4397ZM344.439 40.3469C344.828 41.6016 345.141 43.1173 345.367 44.9071L348.344 44.5304C348.101 42.6171 347.758 40.9219 347.304 39.4577L344.439 40.3469ZM346.855 46.2188H346.996V43.2188H346.855V46.2188ZM348.478 44.9488C348.675 43.684 349.04 42.1771 349.588 40.419L346.724 39.5263C346.147 41.3776 345.739 43.0348 345.514 44.4887L348.478 44.9488ZM349.589 40.4152L356.375 18.4426L353.508 17.5574L346.723 39.5301L349.589 40.4152ZM354.941 19.5H365.945V16.5H354.941V19.5Z" fill="#FF6464"/>
</svg>
